<?xml version="1.0" encoding="utf-8"?>
<!-- Generator: Adobe Illustrator 17.0.2, SVG Export Plug-In . SVG Version: 6.00 Build 0)  -->
<!DOCTYPE svg PUBLIC "-//W3C//DTD SVG 1.1//EN" "http://www.w3.org/Graphics/SVG/1.1/DTD/svg11.dtd">
<svg version="1.1" id="Layer_1" xmlns="http://www.w3.org/2000/svg" xmlns:xlink="http://www.w3.org/1999/xlink" x="0px" y="0px"
	 width="4611.18px" height="482.002px" viewBox="0 0 4611.18 482.002" enable-background="new 0 0 4611.18 482.002"
	 xml:space="preserve">
<g>
	<path fill="#960D11" d="M0.083,152.002c0-49.5,0.034-99-0.083-148.5C-0.007,0.519,0.6-0.64,3.585-0.007
		C3.904,0.061,4.25,0.002,4.583,0.002c1534,0,3068,0.002,4602-0.092c3.749,0,4.603,0.842,4.596,4.593
		c-0.13,70.166-0.096,140.333-0.096,210.5c-1.948,0.521-4.016-0.155-5.218-1.18c-2.218-1.892-4.719-2.125-6.995-1.57
		c-7.85,1.915-16.073,2.402-22.578,8.648c-5.729,5.501-12.409,10.199-21.225,9.437c-0.78-0.067-1.652,0.208-2.395,0.526
		c-6.542,2.804-13.167,4.884-20.484,4.312c-3.362-0.263-6.674,0.003-10.088,1.59c-5.813,2.703-12.244,3.084-18.689,3.763
		c-6.013,0.633-12.034,1.435-18.103,1.65c-1.344,0.048-2.172,0.786-2.876,1.698c-2.578,3.337-6.177,3.17-9.891,3.367
		c-3.189,0.169-5.63-1.946-8.525-2.088c-8.534-0.419-16.8-3.201-25.397-2.828c-3.057,0.132-6.547,0.107-8.731-1.38
		c-3.162-2.152-6.378-2.064-9.351-1.573c-6.327,1.045-12.565,2.449-19.042,2.056c-0.585-0.036-1.445,0.252-1.764,0.69
		c-2.96,4.064-7.133,4.83-11.753,4.551c-1.193-0.072-2.187,0.815-3.205,1.042c-6.076,1.359-11.97,2.701-17.993-1.33
		c-6.436-4.307-13.435-5.053-21.059-1.593c-6.87,3.118-13.529,7.71-21.826,6.412c-1.233-0.193-3.007-0.068-3.815,0.681
		c-5.019,4.657-11.091,4.734-17.266,4.267c-6.404-0.484-12.191,0.572-17.867,4.032c-2.354,1.434-4.844,3.065-7.547,4.148
		c-8.803,3.528-18.271,4.368-27.319,6.91c-2.995,0.842-5.62,2.453-8.83,2.966c-6.502,1.04-12.408,4.355-18.063,7.464
		c-3.086,1.697-5.759,2.963-9.094,2.649c-9.559-0.901-18.698-0.014-26.858,5.664c-4.524,3.148-10.775,2.204-14.832,4.643
		c-7.111,4.276-14.306,4.363-21.839,4.592c-1.498,0.046-3.269-0.1-3.908,1.58c-3.001,7.889-10.723,7.376-16.822,8.715
		c-3.89,0.854-7.49,1.973-11.095,3.487c-5.682,2.386-11.531,3.218-17.729,2.26c-3.414-0.528-7.446-1.228-10.354,0.058
		c-5.235,2.316-10.364,1.519-15.586,1.544c-4.495,0.022-9.397-1.189-13.396,0.211c-7.229,2.532-14.453,1.112-21.627,1.869
		c-3.464,0.366-7.062-0.143-9.236-2.487c-5.743-6.194-12.568-6.308-20.112-5.303c-6.082,0.81-12.37-1.445-18.365,0.195
		c-4.41,1.206-8.459,0.501-12.744-0.001c-3.53-0.413-7.085,0.641-10.597,1.191c-4.183,0.655-7.105,3.982-11.269,3.872
		c-11.92-0.317-23.536,2.127-35.286,3.492c-8.927,1.038-16.048,5.615-23.73,8.958c-6.529,2.841-12.411,4.053-18.848,0.96
		c-9.228-4.434-18.845-7.083-29.151-7.421c-3.355-0.11-5.742,2.561-9.039,2.163c-4.566-0.551-8.267,1.618-11.864,4.049
		c-5.672,3.833-11.497,2.866-16.777-1.5c-5.511-4.557-11.569-8.54-19.335-8.157c-3.326,0.164-6.662,0.183-9.994,0.188
		c-7.776,0.013-14.774,1.709-20.348,7.79c-1.649,1.799-4.359,2.624-6.966,3.361c-5.695,1.612-11.396,2.776-16.854,5.852
		c-4.446,2.506-9.732,4.419-14.685,6.41c-6.8,2.734-14.489,2.357-20.819,6.9c-2.344,1.682-6.657,1.55-9.542-0.519
		c-6.118-4.387-12.787-5.625-20.14-4.954c-3.197,0.292-6.338,0.002-9.638-1.336c-3.004-1.218-7.107-1.102-10.323-0.175
		c-11.481,3.307-22.385,2.766-32.89-3.133c-2.431-1.365-5.232-2.014-7.323-4.056c-6.488-6.337-13.357-11.584-23.361-10.456
		c-4.593,0.518-9.328,0.038-13.978-0.286c-5.19-0.362-9.525,1.294-13.952,3.949c-3.445,2.067-7.138,2.122-11.151-0.894
		c-4.934-3.708-9.198-8.546-16.229-9.597c-3.39-0.507-7.553-1.612-10.665-4.56c-4.358-4.128-15.212-3.961-20.177-0.407
		c-3.68,2.634-7.306,3.91-11.641,0.605c-2.968-2.263-6.632-3.142-10.704-3.007c-8.234,0.274-15.127,4.616-22.703,6.815
		c-5.222,1.516-10.053,4.051-15.772,3.757c-4.047-0.208-8.124-0.462-12.079,1.66c-2.175,1.167-4.998,1.145-7.753,0.644
		c-6.42-1.166-13.156-1.947-19.342-0.061c-5.152,1.57-8.102-0.025-11.813-3.035c-4.591-3.724-10.467-4.688-15.874-2.168
		c-3.514,1.638-6.876,2.019-10.491,1.995c-7.332-0.05-14.675-0.445-21.99-0.137c-4.995,0.21-8.47-2.167-10.553-5.891
		c-2.301-4.113-5.255-5.785-9.603-5.178c-14.771,2.06-28.711-1.391-42.181-6.807c-3.262-1.312-6.688-1.681-9.896-2.555
		c-5.432-1.479-11.598-3.612-17.1-1.358c-6.877,2.817-13.969,2.606-20.485,1.275c-5.469-1.117-9.324,0.423-13.563,2.524
		c-3.879,1.923-7.743,3.339-12.234,3.043c-8.294-0.548-16.655,0.462-24.924-1.05c-2.397-0.438-4.598,0.53-6.638,1.659
		c-4.159,2.3-8.214,4.789-12.389,7.058c-6.214,3.378-13.017,1.816-19.593,2.154c-2.305,0.119-5.371-1.029-6.776,0.601
		c-4.577,5.311-10.453,4.003-16.144,4.138c-5.743,0.136-11.34,0.24-17.14,1.656c-8.486,2.072-18.016,2.119-25.171-3.412
		c-5.266-4.071-10.305-5.001-16.078-4.238c-10.332,1.364-19.989-2.972-30.115-3.109c-0.691-0.009-1.325-0.904-2.064-1.171
		c-6.571-2.381-13.171-3.189-19.588,0.365c-1.712,0.948-3.418,1.138-5.248,1.237c-8.999,0.483-17.882-1.877-26.897-1.068
		c-2.387,0.214-4.145-1.499-5.531-2.881c-1.079-1.076-2.207-1.588-3.364-2.361c-5.756-3.847-12.221-2.274-18.387-2.848
		c-5.604-0.522-14.173-7.404-15.512-12.651c-1.754-6.872-8.478-10.231-15.407-8.873c-4.667,0.915-9.105,2.931-14.002,2.897
		c-2.994-0.021-5.935-0.358-8.749,2.149c-1.54,1.372-5.199,1.647-7.229-0.81c-1.19-1.44-2.643-1.469-4.024-1.356
		c-6.408,0.525-11.631-3.368-17.571-4.514c-5.394-1.041-6.844-4.939-7.229-9.692c-0.119-1.463,0.35-3.755-0.95-4.168
		c-6.002-1.906-10.471-7.592-17.605-6.763c-6.142,0.714-12.454-0.861-17.811-2.937c-8.595-3.332-16.762-7.785-25.661-10.617
		c-2.751-0.876-6.657-0.605-8.165-2.968c-3.534-5.541-8.703-4.357-13.648-4.444c-4.663-0.083-9.33,0.022-13.995,0.099
		c-4.803,0.079-8.988-1.945-12.582-4.641c-5.45-4.089-15.894-5.592-20.366-0.491c-6.476,7.385-13.839,4.732-20.665,3.202
		c-3.965-0.888-8.829-0.057-12.269-4.175c-4.511-5.401-11.552-4.424-16.555-2.227c-4.575,2.008-8.724,2.506-13.295,2.403
		c-2.865-0.065-5.603,0.145-7.966,1.923c-2.496,1.878-5.515,2.756-8.366,2.452c-8.643-0.924-16.622-0.218-22.945,6.616
		c-0.106,0.114-0.28,0.184-0.435,0.23c-8.249,2.494-16.041,5.931-22.618,11.617c-1.422,1.229-2.874,1.418-4.516,1.645
		c-1.261,0.174-2.5,0.073-3.738,0.974c-6.693,4.878-14.562,6.948-22.462,8.728c-2.51,0.565-5.099,0.327-7.059-2.345
		c-1.63-2.221-4.483-3.147-6.93-4.489c-6.945-3.806-14.686-5.317-22.091-7.677c-4.771-1.52-10.183-1.805-15.135,0.208
		c-7.943,3.23-16.014,3.234-23.426-0.587c-5.538-2.855-9.955-8.035-17.107-6.575c-0.29,0.059-0.747-0.049-0.937-0.255
		c-4.48-4.83-11.084-5.728-16.534-8.786c-7.092-3.979-14.593-7.725-23.26-6.725c-4.299,0.496-7.725-1.803-10.927-3.904
		c-4.023-2.639-8.053-2.277-11.885-0.794c-9.487,3.67-18.957,6.48-29.266,4.072c-2.16-0.504-4.254-0.091-5.827,1.889
		c-3.808,4.793-9.153,3.964-13.772,2.551c-8.231-2.518-15.225-7.957-23.377-10.909c-5.868-2.125-11.54-5.217-17.856-5.235
		c-7.036-0.02-14.016-0.942-20.334-3.418c-7.314-2.865-14.352-4.932-22.323-4.631c-9.195,0.347-17.896-4.673-27.323-3.222
		c-0.305,0.047-0.775-0.011-0.946-0.211c-4.75-5.543-11.541-6.864-18.044-8.817c-7.327-2.202-15.071-2.993-22.148-0.871
		c-7.06,2.117-13.307,2.223-19.975-0.464c-3.606-1.453-8.044-2.14-11.049,0.032c-3.32,2.399-7.211,3.203-10.414,5.328
		c-6.311,4.186-12.15,2.274-17.343-1.326c-2.578-1.787-4.868-2.21-7.583-2.227c-4.166-0.025-8.333,0.115-12.498,0.063
		c-1.474-0.018-3.136-0.023-4.383-0.669c-8.654-4.479-17.361-4.417-26.008-0.309c-3.531,1.677-7.043,2.793-10.919,2.327
		c-3.61-0.435-6.76,1.156-9.236,3.103c-7.125,5.605-15.275,7.253-23.947,7.38c-4.994,0.073-9.993-0.209-14.99-0.202
		c-1.779,0.003-3.904-0.289-5.008,1.558c-2.763,4.621-7.199,5.914-12.013,7.534c-4.209,1.416-7.47,1.446-10.318-1.525
		c-3.987-4.161-9.011-3.532-12.815-1.571c-4.4,2.268-8.377,2.109-12.446,0.928c-4.717-1.369-8.854-0.018-12.847,1.771
		c-5.863,2.626-19.236,3.551-26.098-3.235c-3.414-3.377-7.159-6.614-11.057-9.273c-5.855-3.995-12.983-3.567-19.788-2.526
		c-3.716,0.568-7.372,1.126-10.497-1.35c-4.15-3.288-8.868-4.311-13.95-4.134c-4.664,0.163-8.828-1.162-12.412-4.052
		c-1.689-1.362-3.64-1.919-5.535-1.814c-8.202,0.454-15.975-2.142-23.972-3.086c-2.089-0.247-4.323,0.413-6.229-1.177
		c-3.98-3.321-9.474-3.97-13.349-7.706c-1.62-1.562-4.497-1.416-6.548-0.016c-2.844,1.941-5.995,3.451-8.335,6.17
		c-1.003,1.165-2.138,2.687-3.964,2.777c-9.318,0.463-18.779,0.714-27.813-1.299c-6.48-1.444-12.966-3.174-19.511-4.313
		c-3.707-0.645-6.946-1.645-10.072-3.709c-5.693-3.759-13.141-2.632-17.809,2.222c-2.097,2.181-4.23,5.433-6.752,5.874
		c-5.84,1.02-12.12,1.225-17.815-0.547c-4.687-1.457-8.205,0.258-11.401,2.459c-4.19,2.886-7.719,6.892-13.343,6.564
		c-5.192-0.303-10.299-2.262-14.256-5.03c-6.987-4.888-13.711-2.701-19.854-0.169c-6.103,2.517-9.653,3.275-15.421-0.224
		c-2.572-1.56-5.048-3.623-8.485-3.589c-13.659,0.136-27.319,0.105-40.978,0.185c-1.162,0.007-2.587-0.412-3.108,1.519
		c-0.106,0.395-2.172,0.387-3.327,0.352c-7.16-0.215-14.319-0.488-21.478-0.748c-0.997-0.036-1.841-0.345-2.76-0.874
		c-4.458-2.565-9.094-4.537-14.475-3.914c-4.152,0.48-6.953-1.71-9.652-4.723c-6.031-6.731-13.256-12.489-22.725-8.672
		c-8.163,3.29-13.463-0.841-19.832-4.09c-7.165-3.655-15.035-6.724-22.805-1.61c-5.595,3.682-10.921,2.792-16.427,0.567
		c-0.853-0.345-1.588-1.092-2.623-1.137c-9.483-0.412-18.772,0.149-27.636,4.187c-2.099,0.956-4.945,1.455-7.075-0.398
		c-1.65-1.435-3.493-2.005-5.496-1.945c-11.853,0.352-23.878-1.815-35.487,2.218c-4.088,1.42-8.654-0.763-12.317,0.929
		c-8.28,3.824-17.385,0.217-25.631,3.647c-3.296,1.371-6.127-1.723-9.449-2.088c-5.163-0.568-9.653,2.224-14.537,2.05
		c-10.495-0.375-20.718,1.257-31.55-2.146c-11.847-3.722-24.889-0.341-37.302,1.724c-0.318,0.053-0.665,0.195-0.909,0.401
		c-3.963,3.35-10.377,2.003-13.514,7.051c-0.282,0.454-1.636,0.53-2.392,0.353c-4.37-1.021-6.365,1.606-8.446,4.814
		c-2.768,4.266-5.814,4.071-8.491-0.142c-3.41-5.367-5.947-6.208-11.57-3.773c-2.732,1.183-5.323,1.34-7.965-0.38
		c-5.034-3.276-10.583-4.275-16.572-3.934c-3.96,0.225-8.037,0.102-11.926-0.606c-4.64-0.845-8.676,0.03-12.959,1.769
		c-4.391,1.783-8.973,2.49-13.829,0.261c-6.223-2.857-13.086-3.321-19.339-0.531c-3.875,1.729-7.762,2.015-11.028,0.769
		c-5.635-2.149-11.329-4.098-16.969-6.197c-6.274-2.335-12.004-2.735-18.217-0.257c-5.371,2.141-11.129,0.998-16.727,1.029
		c-3.453,0.019-4.028-3.541-6.118-5.247c-6.57-5.365-14.457-7.354-22.502-8.28c-5.007-0.576-10.448-1.457-15.245,1.071
		c-7.95,4.191-11.708,3.885-18.787-1.672c-6.352-4.986-13.645-7.829-21.601-5.227c-7.132,2.332-14.253,2.147-21.501,2.161
		c-3.338,0.006-6.612-1.133-8.725-2.935c-8.068-6.879-18.193-8.671-27.607-12.221c-0.852-0.321-2.107-0.231-2.944,0.16
		c-9.582,4.488-19.73,5.203-30.086,4.775c-2.28-0.094-4.461,0.531-6.71,1.05c-4.769,1.099-10.029,1.943-14.626-0.416
		c-3.834-1.967-7.515-3.757-11.903-3.783c-2.829-0.017-5.401-0.465-7.778-2.546c-5.619-4.918-18.664-5.628-25.264-0.536
		c-4.11,3.171-8.697,4.416-13.832,4.598c-3.539,0.125-7.06,0.722-10.603,1.43c-7.955,1.588-16.4,2.699-24.279-0.937
		c-4.983-2.3-11.651-1.543-16.214,1.868c-3.93,2.937-8.669,6.665-13.393,4.372c-6.194-3.006-12.299-1.757-18.457-2.149
		c-4.134-0.263-7.732,0.908-11.445,3.132c-5.529,3.312-11.85,5.238-17.244,8.962c-0.804,0.555-2.545,0.633-3.369,0.134
		c-4.162-2.523-9.181-3.326-12.836-6.947c-3.16-3.13-7.21-4.133-11.804-3.974c-9.647,0.335-19.31,1.048-28.969,0.062
		c-2.212-0.226-4.056,0.542-6.05,1.691c-5.462,3.148-12.036,1.918-14.867-3.248c-2.956-5.394-8.44-8.048-13.025-8.58
		c-7.178-0.832-12.675-4.653-18.885-7.086c-3.987-1.562-7.342-2.112-11.117,0.114c-5.459,3.219-10.695,4.749-17.051,0.904
		c-2.314-1.4-6.73-4.15-10.021-1.336c-5.449,4.659-12.173,4.088-18.431,5.413c-1.899,0.402-3.722-0.796-5.561-1.319
		c-6.396-1.818-10.909-6.652-16.631-9.524c-4.802-2.411-7.63-1.869-10.916,2.214c-3.208,3.986-8.401,5.854-13.076,5.107
		c-5.237-0.837-10.408-1.986-15.701-1.662c-5.914,0.361-10.503-2.762-13.693-6.625c-3.242-3.926-6.495-5.113-11.073-4.635
		c-4.696,0.49-8.398-0.955-12.111-4.283c-1.775-1.591-4.133-3.84-7.668-4.029c-10.323-0.552-20.503,0.595-30.4,2.864
		c-2.782,0.638-6.59,1.486-9.187,4.102c-3.837,3.865-8.649,5.823-14.169,6.024c-2.921,0.106-5.644,0.43-8.541,1.803
		c-3.243,1.537-7.445,2.038-10.451-1.682c-2.938-3.635-7.18-3.777-10.885-2.481c-2.902,1.015-6.095,1.577-8.728,3.122
		c-9.531,5.592-19.54,8.131-30.631,6.47c-4.082-0.611-8.354,0.136-12.477-0.314c-7.823-0.853-12.166,4.382-15.73,9.608
		c-1.796,2.634-3.265,3.302-5.749,3.071c-7.585-0.705-14.492,3.175-21.973,3.149c-0.737-0.003-1.786,0.477-2.166,1.069
		c-3.04,4.735-7.676,3.594-12.103,3.562c-6.496-0.047-12.999-0.012-19.49,0.215c-6.42,0.225-12.686-0.128-17.885-4.413
		c-4.469-3.684-9.51-4.297-15.054-4.076c-7.487,0.299-14.995,0.06-22.494,0.089c-2.364,0.009-4.148-0.643-6.235-2.186
		c-7.859-5.812-16.778-4.684-25.484-2.349c-6.722,1.803-14.167,3.703-20.015,0.783c-6.051-3.022-11.324-3.078-17.331-2.158
		c-1.947,0.298-4.035,0.267-5.975-0.08c-15.387-2.757-29.797-1.479-42.156,9.419c-1.82,1.605-3.748,1.828-6.677,0.831
		c-6.971-2.374-14.291-4.405-21.619-0.178C7.644,149.236,3.762,150.444,0.083,152.002z"/>
</g>
<path fill="none" d="M-202.917-1573.998c-2.667,0-5.333,0-8,0"/>
</svg>
