<?xml version="1.0" encoding="utf-8"?>
<!-- Generator: Adobe Illustrator 21.1.0, SVG Export Plug-In . SVG Version: 6.00 Build 0)  -->
<svg version="1.1" id="Layer_1" xmlns="http://www.w3.org/2000/svg" xmlns:xlink="http://www.w3.org/1999/xlink" x="0px" y="0px"
	 viewBox="0 0 669.3 495.4" style="enable-background:new 0 0 669.3 495.4;" xml:space="preserve">
<style type="text/css">
	.st0{fill:#FFFFFF;}
	.st1{fill:#E03C3F;}
	.st2{fill:#FFEB00;}
	.st3{fill:#FFE900;}
	.st4{fill:#FFEA00;}
	.st5{fill:#FFFAF7;}
	.st6{fill:#FFF9F7;}
	.st7{fill:#E13F3F;}
	.st8{fill:#E14042;}
</style>
<g>
	<g>
		<path d="M526.5,407.1c-3.9,0-7.9,0-12.3-0.1c-9.8-0.1-19.4-2.2-28.7-4.2c-1.7-0.4-3.3-0.7-5-1.1c-11.9-2.5-16.8-11.8-21.6-20.8
			c-1.9-3.6-3.7-7.4-5.3-11c-2.8-6-5.6-12.2-9.3-17.8c-3.3-5-7.5-7.7-11.8-7.7c-4.2,0-8.3,2.6-11.7,7.3c-1.5,2.2-3,4.5-4.4,6.8
			c-2.1,3.4-4.3,6.9-6.9,10.1c-10.2,12.8-25,15.5-36.7,16.4c-10.9,0.9-22.4,1.3-34.1,1.3c-15.4,0-31.2-0.7-48.6-2.2
			c-17.4-1.5-30.6-10-39-25.2l-0.3-0.6c-2.2-4-4.3-7.8-7.8-10.6c-3.3-2.6-6.3-3.9-9.1-3.9c-3.5,0-6.8,2.1-9.9,6.5
			c-3.6,5-6.3,10.8-9,16.3c-0.6,1.3-1.2,2.6-1.9,3.9c-0.1,0.3-0.3,0.6-0.5,0.9c-0.4,0.8-0.7,1.5-1,2.2
			c-7.8,24.7-27.9,29.9-44.5,31.7c-8.8,0.9-18.1,1.4-28.5,1.4c-13.3,0-26.9-0.8-39.9-1.5c-4.1-0.2-8.3-0.5-12.4-0.7
			c-12.8-0.7-25.6-3.5-36.7-6.2c-8.8-2.1-15.2-8.6-19.2-19.3c-6-16.2-5.8-32.7-5.1-45.2c6-94.6,20.5-170.2,45.5-237.9
			c6.4-17.4,14.3-35.6,28.4-50.6c14-14.9,30.7-24.5,51-29.3c17.5-4.1,35.1-4.6,52.2-5.2c4.6-0.1,9.4-0.3,14.1-0.5
			c0.8,0,17.8,0,21.2,0c8,0,14,0,19.7-0.1l0.1,0c3.2,0,5.3,1.1,7,3.8c9.5,14.4,19.3,28.9,28.7,43c12.2,18.3,24.9,37.2,37.3,55.9
			c1.1,1.6,1.6,2.1,1.9,2.3c0.6-0.4,1.7-2,2.1-2.6c12.7-18.6,25.8-37.6,38.4-55.8c9.7-14,19.3-28.1,29-42.1c1.7-2.4,3.6-3.5,6.4-3.5
			l0.2,0c3.8,0.1,7.8,0.1,12.4,0.1c5.5,0,11,0,16.4-0.1c5.4,0,10.9-0.1,16.4-0.1c15.2,0,33.2,0.3,51.1,2.9
			c37.5,5.3,64.8,25.3,81.3,59.6c16,33.2,25.4,68.4,31.8,95.3c14.3,60.3,22.3,119.7,23.6,176.4c0.3,11.2-0.4,25.8-7.5,39.3
			c-4.3,8.1-10.7,12.8-20.3,14.8C588.9,404.7,562,407.1,526.5,407.1z M433.2,328.9c10.5,0,19.6,5.5,24.8,15.2
			c2.6,4.8,5,9.8,7.3,14.6c3.1,6.4,6.3,13.1,10,19.3l0.5,0.9c1.9,3.2,3.7,6.3,7,7.2c6.8,1.8,14,3.5,21.3,3.9
			c11.4,0.6,21.8,0.9,32,0.9c23.3,0,44.4-1.6,64.5-4.8c18-2.9,22-7.1,24.3-24.9c0.7-5.6,1.1-11.6,1.2-18.2c0.3-19.9-2.2-40-4.5-59.5
			l-0.1-1c-4.7-38.7-10.2-79.8-20.9-119.1c-7.6-27.9-15.4-55-27.2-80.6c-13.6-29.5-35-47-63.8-52c-16.8-2.9-35-4.3-55.9-4.3
			c-5.3,0-10.8,0.1-16.7,0.3c5.3,3.9,9.9,7.7,13.9,11.7C456,43.5,461,49.1,466,55.6c28.5,36.9,31.2,90.2,6.6,129.6
			c-23.1,37-57.6,59.6-105.3,69c-11.8,2.3-23.8,3.5-35.5,3.5c-19.2,0-38.5-3.2-57.2-9.4c-35.1-11.7-60.9-30.5-78.8-57.5
			c-24.2-36.6-27.2-75.2-8.8-114.8c8.8-19,22.2-34.8,42.1-49.6l-0.2,0c-3.6,0-7.1,0-10.7,0c-19.7,0-36.2,0.5-52.8,2.7
			c-26.5,3.6-46.3,14.9-60.6,34.7c-10.8,15-17.3,32.4-23,48.8c-15.8,45.7-27,94.7-33.1,145.8c-0.6,5.1-1.3,10.1-1.9,15.2
			c-3,23.4-6,47.6-5.7,71.6c0.1,7.7,0.7,17.7,3.9,27.3c2.2,6.5,5.6,10,10.9,11.1c21.9,4.5,39.9,6.6,56.7,6.6c1.3,0,2.6,0,3.9,0
			c2.1,0,4.4-0.1,6.9-0.1c3.6,0,7.2,0,10.8,0.1c3.6,0,7.2,0.1,10.8,0.1c8,0,17.5-0.2,27.2-1.5c12.3-1.6,19.3-6.8,22.9-16.7
			c0.3-0.9,0.7-1.7,1.1-2.5c1.3-2.6,2.5-5.2,3.8-7.8c3.1-6.6,6.4-13.4,10.5-19.7c5.8-8.7,14.5-13.7,23.8-13.7c7,0,13.9,2.8,19.9,8
			c4.8,4.2,7.9,9.7,10.1,14c5.5,10.9,14.7,17,27.2,18.2c17.2,1.7,33.1,2.5,48.6,2.5c8.4,0,16.8-0.2,24.8-0.7
			c21.6-1.3,34.4-9.1,41.6-25.3c0.2-0.3,0.3-0.6,0.5-0.9l0.2-0.3C412.1,334.7,422.3,328.9,433.2,328.9z M269.8,228.7
			c0,0,0.3,0.3,1.5,0.7c19.8,6.9,36.5,10.5,52.6,11.3c2.7,0.1,5.5,0.2,8.2,0.2c20.1,0,40.6-3.8,60.9-11.3c2.4-0.9,4.9-1.8,5.5-2.4
			c-0.1-0.8-1.7-2.9-3.2-5c-7-9.9-12.8-18.1-18.7-26.6c-10.8-15.4-21.6-30.8-32.6-46.6l-10.6-15.1l-18.8,28
			c-14.3,21.3-29.1,43.3-43.7,64.8C269.9,228.2,269.8,228.6,269.8,228.7C269.8,228.7,269.8,228.7,269.8,228.7z M193.2,129.9
			c-1.4,0-1.7,0.2-1.7,0.2c0,0-0.2,0.4,0,1.8c1.2,13.1,4.5,25.3,10.1,36.4c11.2,22.5,29.4,40.4,55.8,54.8c0.8,0.4,1.4,0.7,1.9,0.7
			l0,0c0.2,0,0.8,0,1.9-1.7c7.8-11.8,15.9-23.7,23.7-35.2c3.8-5.5,7.5-11.1,11.3-16.6c6.4-9.5,12.8-19.1,19.4-28.9
			c2.5-3.8,5.1-7.6,7.7-11.4l-48.7,0C250.2,129.9,221.6,129.9,193.2,129.9v-2V129.9z M356.1,147.7c17.7,25.3,34.4,49.2,51.3,73.6
			c0.6,0.9,0.9,1,0.9,1c0.2,0,0.6-0.1,1.7-0.7c9.9-5.4,18.5-11.3,26.1-18.1c21.5-19.3,33.6-41.6,37-68.3c0.2-1.7,0.4-3.8-0.3-4.5
			c-0.3-0.4-1.3-0.9-4.1-0.9l-0.2,0c-16.6,0.2-34.2,0.2-57.3,0.2c-9.7,0-19.5,0-29.2,0c-9.7,0-19.5,0-29.2,0l-9.1,0L356.1,147.7z
			 M259.7,27.3c-0.6,0-1.6,0.3-2.9,1c-9.2,4.8-17,10-24.1,15.9c-24,19.8-37.4,43.1-41,71.2c-0.3,2.5-0.1,3.3,0.2,3.6
			c0.2,0.3,1.1,0.6,3.5,0.6l0.2,0c24-0.1,47.7-0.1,65.7-0.1c9.8,0,19.6,0,29.4,0c9.8,0,19.6,0,29.4,0l2.4,0l-3.8-5.7
			c-5.3-8-10.4-15.4-15.4-22.9l-8.9-13.3c-10.5-15.7-21.4-31.9-32-47.9C260.9,27.5,260.3,27.3,259.7,27.3z M401.3,119.5
			c19,0,44.1,0,69.3,0.1c0,0,0,0,0,0c2,0,2.4-0.4,2.5-0.5c0.3-0.3,0.1-1.8-0.1-2.8l-0.1-0.7c-5.1-37-25.8-65.3-63.4-86.5
			c-1.1-0.6-1.9-0.9-2.5-0.9c-0.7,0-1.4,0.5-3,2.8c-8.8,12.9-17.9,25.9-26.6,38.5c-4.5,6.5-9,13-13.6,19.5
			c-5.1,7.3-10.1,14.6-15.3,22.3c-1.8,2.7-3.7,5.4-5.6,8.2c9.3,0,18.5,0,27.7,0C380.9,119.5,391.1,119.5,401.3,119.5z"/>
		<path class="st0" d="M257.8,12.3c2.4,0,3.9,0.6,5.4,2.9c21.9,33,44.1,65.9,66,98.9c1.5,2.2,2.6,3.2,3.6,3.2c1.2,0,2.2-1.3,3.7-3.5
			c22.4-32.7,44.9-65.3,67.3-98c1.3-1.9,2.6-2.6,4.8-2.6c0.1,0,0.1,0,0.2,0c4.1,0.1,8.3,0.1,12.4,0.1c10.9,0,21.9-0.2,32.8-0.2
			c17,0,33.9,0.5,50.8,2.8c37,5.2,63.6,24.8,79.8,58.4c14.6,30.3,23.9,62.4,31.6,94.9c13.7,57.8,22.1,116.5,23.6,176
			c0.3,13.2-0.9,26.3-7.3,38.3c-4.1,7.7-10.2,11.9-19,13.8c-28.7,6.2-57.7,7.7-86.9,7.7c-4.1,0-8.2,0-12.3-0.1
			c-11.3-0.1-22.3-2.9-33.3-5.3c-10.9-2.3-15.6-11.1-20.2-19.8c-5.1-9.6-8.8-19.8-14.8-28.9c-3.8-5.7-8.6-8.6-13.5-8.6
			c-4.7,0-9.5,2.7-13.3,8.1c-3.9,5.5-7.1,11.5-11.2,16.8c-9,11.3-21.8,14.6-35.3,15.7c-11.3,0.9-22.6,1.3-34,1.3
			c-16.1,0-32.3-0.8-48.4-2.2c-16.6-1.4-29.2-9.4-37.4-24.2c-2.4-4.3-4.7-8.6-8.6-11.8c-3.6-2.9-7.1-4.4-10.3-4.4
			c-4.2,0-8,2.4-11.6,7.3c-4.6,6.4-7.6,13.5-11,20.5c-0.5,1.1-1.2,2.2-1.5,3.3c-6.6,20.9-22.3,28.1-42.8,30.3
			c-9.4,1-18.9,1.4-28.3,1.4c-17.4,0-34.8-1.3-52.2-2.2c-12.2-0.6-24.4-3.3-36.3-6.2c-9.1-2.2-14.5-9.3-17.8-18
			c-5.3-14.4-5.9-29.5-4.9-44.4c5.1-81,17-160.8,45.4-237.3c6.7-18.1,14.6-35.6,28-49.9c13.7-14.6,30.3-24.1,50-28.7
			c22.1-5.2,44.4-4.6,65.9-5.6c7.2,0,14.2,0,21.1,0c6.6,0,13.2,0,19.8-0.1C257.7,12.3,257.8,12.3,257.8,12.3 M112.5,392.1
			c1.3,0,2.6,0,3.9,0c2.3,0,4.6-0.1,6.9-0.1c7.2,0,14.4,0.2,21.6,0.2c9.2,0,18.3-0.3,27.5-1.5c11.8-1.6,20.4-6.5,24.5-18
			c0.3-0.8,0.6-1.5,1-2.2c4.6-9.1,8.5-18.7,14.2-27.2c5.6-8.5,13.7-12.8,22.1-12.8c6.3,0,12.8,2.5,18.5,7.5
			c4.2,3.7,7.2,8.5,9.6,13.4c6.1,11.9,16,18.1,28.8,19.3c16.2,1.6,32.5,2.5,48.8,2.5c8.3,0,16.6-0.2,25-0.7
			c19.5-1.2,35-7.7,43.3-26.5c0.2-0.4,0.4-0.7,0.6-1.1c4.7-8.5,14.5-13.7,24.3-13.7c8.8,0,17.7,4.2,23,14.1
			c6.1,11.2,10.8,23,17.3,33.9c2.2,3.7,4.3,7.8,8.8,9c7.1,1.9,14.3,3.5,21.7,3.9c10.7,0.6,21.4,0.9,32.1,0.9
			c21.7,0,43.3-1.4,64.8-4.9c18.6-3,23.6-7.8,25.9-26.6c0.8-6.1,1.1-12.3,1.2-18.4c0.3-20.4-2.2-40.6-4.7-60.8
			c-4.9-40.2-10.3-80.2-21-119.4c-7.5-27.5-15.3-54.9-27.3-80.9c-13.1-28.4-34.1-47.7-65.3-53.1c-18.6-3.2-37.4-4.4-56.3-4.4
			c-6.8,0-13.6,0.1-20.5,0.4c-0.2,0-0.4,0.6-0.7,1.1c6,4.2,11.7,8.7,17,13.9c5.4,5.3,10.4,11,15,17c28,36.2,30.7,88.5,6.5,127.3
			c-24.2,38.7-60.4,59.5-104,68.1c-11.7,2.3-23.4,3.5-35.1,3.5c-19,0-37.9-3.1-56.6-9.3c-31.9-10.7-59-28.4-77.7-56.7
			c-23.7-35.8-26.9-73.7-8.7-112.9c9.9-21.3,25.6-37.7,45.8-51.9c-2.2-0.3-2.9-0.5-3.7-0.5c-4.2,0-8.5,0-12.7,0
			c-17.7,0-35.4,0.3-53.1,2.7c-25.5,3.4-46.7,14.3-62,35.5c-10.8,15-17.3,32.1-23.3,49.3c-16.5,47.5-27.2,96.3-33.2,146.2
			c-3.5,28.9-8,57.8-7.6,87.1c0.1,9.5,0.9,18.9,4,27.9c2.1,6.1,5.6,11,12.4,12.4C74.2,389.3,93.2,392.1,112.5,392.1 M195.4,121.6
			c0.1,0,0.1,0,0.2,0c21.9-0.1,43.8-0.1,65.7-0.1c19.6,0,39.1,0,58.7,0c1.6,0,3.1,0,6.2,0c-7.7-11.4-14.5-21.5-21.3-31.7
			c-13.6-20.4-27.3-40.7-40.8-61.2c-1.4-2.1-2.6-3.3-4.3-3.3c-1,0-2.2,0.4-3.8,1.2c-8.7,4.6-16.9,9.9-24.4,16.1
			c-22.9,18.9-37.9,42.5-41.7,72.5C189.1,120.3,190.2,121.6,195.4,121.6 M339.1,121.5c21,0,41.6,0,62.1,0c23.3,0,46.3,0,69.4,0.1
			c0,0,0,0,0.1,0c5.5,0,4.7-3,4.2-6.3c-5.6-40.9-29.6-68.3-64.4-88c-1.4-0.8-2.5-1.2-3.5-1.2c-1.9,0-3.1,1.4-4.7,3.6
			c-13.3,19.4-26.8,38.7-40.2,58C354.7,98.7,347.3,109.6,339.1,121.5 M411.2,128c-19.5,0-38.9,0-58.4,0c-3.8,0-7.7,0-12.9,0
			c22.5,32.3,44.2,63.3,65.9,94.5c0.9,1.3,1.7,1.9,2.6,1.9c0.7,0,1.5-0.4,2.7-1c9.5-5.2,18.4-11.2,26.5-18.4
			c20.9-18.7,34.1-41.4,37.6-69.5c0.7-5.5-0.1-7.6-6.3-7.6c-0.1,0-0.2,0-0.3,0C449.4,127.9,430.3,128,411.2,128 M259.2,225.8
			c1.3,0,2.3-0.8,3.5-2.6c11.5-17.4,23.3-34.6,34.9-51.8c9.5-14.2,19-28.4,29.2-43.5c-17.7,0-35.2,0-52.6,0c-27.2,0-54.1,0-81-0.1
			c0,0,0,0,0,0c-3.4,0-4,1-3.7,4.2c1.2,13,4.4,25.4,10.3,37.1c12.5,25,32.5,42.5,56.6,55.7C257.4,225.5,258.3,225.8,259.2,225.8
			 M332.1,242.9c21.2,0,41.6-4.1,61.6-11.4c8.4-3.1,8.4-3.1,3.2-10.4c-6.3-8.8-12.5-17.7-18.7-26.6c-14.7-21.1-29.5-42.2-44.8-64.1
			c-3.8,5.6-7.1,10.5-10.4,15.4c-17.9,26.6-35.8,53.3-53.8,79.8c-1.9,2.8-2.3,4.5,1.4,5.8c17.3,6,34.8,10.5,53.2,11.4
			C326.6,242.8,329.3,242.9,332.1,242.9 M257.8,8.3l-0.1,0c-5.7,0-11.8,0.1-19.7,0.1c-3.4,0-6.8,0-10.3,0c-3.5,0-7.1,0-10.8,0h-0.1
			l-0.1,0c-4.6,0.2-9.4,0.4-14.1,0.5c-17.2,0.5-34.9,1-52.6,5.2c-20.8,4.9-37.8,14.7-52,29.9C83.7,59.2,75.7,77.6,69.2,95.2
			C44,163.1,29.5,238.8,23.5,333.6c-0.8,12.8-0.9,29.5,5.2,46c4.2,11.4,11.1,18.3,20.6,20.5c11.1,2.7,24.1,5.6,37,6.3
			c4.1,0.2,8.4,0.4,12.4,0.7c13.1,0.7,26.6,1.5,40,1.5c10.5,0,19.9-0.5,28.7-1.4c12-1.3,21-4.1,28.3-8.7
			c8.6-5.5,14.4-13.5,17.9-24.3c0.2-0.5,0.5-1.2,0.8-1.9c0.2-0.3,0.3-0.6,0.5-0.9c0.6-1.3,1.2-2.6,1.9-3.9c2.7-5.7,5.2-11.1,8.8-16
			c2.8-3.8,5.5-5.7,8.3-5.7c2.3,0,4.9,1.2,7.8,3.5c3.1,2.5,5.1,6.1,7.3,10l0.3,0.6c8.8,15.8,22.4,24.6,40.6,26.2
			c17.4,1.5,33.3,2.3,48.8,2.3c11.7,0,23.3-0.4,34.3-1.3c12.2-1,27.5-3.8,38.1-17.2c2.6-3.3,4.9-6.8,7-10.3c1.4-2.2,2.9-4.5,4.4-6.7
			c2.9-4.2,6.5-6.4,10-6.4c3.6,0,7.2,2.4,10.1,6.8c3.6,5.5,6.3,11.3,9.2,17.5c1.7,3.7,3.4,7.4,5.4,11.1c4.8,9,10.2,19.2,22.9,21.9
			c1.7,0.4,3.3,0.7,5,1.1c9.4,2,19.1,4.1,29.1,4.3c4.4,0.1,8.4,0.1,12.3,0.1c35.7,0,62.7-2.4,87.7-7.8c10-2.2,17.1-7.4,21.6-15.9
			c7.4-13.9,8-28.8,7.8-40.3c-1.3-56.9-9.3-116.4-23.7-176.9c-6.4-27-15.8-62.3-31.9-95.7c-16.8-34.9-44.7-55.3-82.8-60.7
			c-18-2.5-36.1-2.9-51.4-2.9c-5.5,0-11,0-16.4,0.1c-5.4,0-10.9,0.1-16.4,0.1c-4.5,0-8.6,0-12.3-0.1c-0.1,0-0.2,0-0.3,0
			c-3.5,0-6,1.3-8.1,4.4c-9.6,14.1-19.5,28.4-29,42.2c-12.6,18.3-25.6,37.1-38.3,55.8c-0.2,0.2-0.3,0.4-0.4,0.6
			c-0.1-0.1-0.1-0.2-0.2-0.3c-12.4-18.7-25-37.6-37.3-55.9c-9.4-14.1-19.2-28.7-28.7-43C264.4,9.7,261.7,8.3,257.8,8.3L257.8,8.3z
			 M112.5,388.1c-16.7,0-34.6-2.1-56.3-6.5c-4.6-0.9-7.5-3.9-9.4-9.7c-3.1-9.4-3.6-19.2-3.8-26.7c-0.4-23.9,2.7-48,5.7-71.3
			c0.6-5,1.3-10.1,1.9-15.2c6.1-50.9,17.3-99.8,33.1-145.4c5.7-16.3,12.1-33.5,22.8-48.3c13.9-19.3,33.3-30.4,59.3-33.9
			c16.5-2.2,33-2.7,52.5-2.7c1.7,0,3.3,0,5,0c-17.6,13.9-29.8,29-38.1,46.7c-18.7,40.3-15.7,79.6,9,116.8c9.3,14,21.1,26.2,35,36
			c12.8,9.1,27.9,16.6,44.8,22.3c18.9,6.3,38.4,9.5,57.8,9.5c11.9,0,23.9-1.2,35.9-3.6c23-4.6,43.5-12.4,60.7-23.3
			c18.5-11.7,34-27.4,46-46.6c25-40.1,22.3-94.3-6.7-131.8c-5.1-6.6-10.1-12.2-15.4-17.4c-2.9-2.8-6.1-5.6-9.6-8.4
			c3.8-0.1,7.4-0.1,11-0.1c20.8,0,39,1.4,55.6,4.3c28.1,4.9,49.1,22,62.3,50.8c11.7,25.5,19.5,52.5,27.1,80.3
			c10.7,39.2,16.2,80.2,20.8,118.8l0.1,1c2.4,19.4,4.8,39.4,4.5,59.2c-0.1,6.6-0.5,12.5-1.2,18c-2.1,16.9-5.5,20.4-22.6,23.1
			c-20,3.2-41,4.8-64.2,4.8c-10.2,0-20.6-0.3-31.9-0.9c-6.7-0.4-13.2-1.8-20.9-3.8c-2.4-0.6-3.8-2.8-5.8-6.3
			c-0.2-0.3-0.4-0.6-0.5-0.9c-3.6-6.1-6.8-12.8-9.9-19.1c-2.3-4.8-4.7-9.8-7.3-14.6c-5.6-10.3-15.3-16.2-26.5-16.2
			c-11.5,0-22.5,6.2-27.8,15.8c0,0.1-0.1,0.1-0.1,0.2c-0.2,0.3-0.4,0.7-0.6,1.1c-6.9,15.5-19.2,22.9-39.9,24.2
			c-8,0.5-16.4,0.7-24.7,0.7c-15.5,0-31.3-0.8-48.4-2.4c-11.8-1.1-20.4-6.9-25.6-17.1c-2.3-4.4-5.5-10.1-10.6-14.6
			c-6.3-5.6-13.7-8.5-21.2-8.5c-10,0-19.3,5.3-25.5,14.6c-4.3,6.4-7.5,13.3-10.7,19.9c-1.2,2.6-2.5,5.2-3.8,7.7
			c-0.4,0.8-0.9,1.7-1.2,2.7c-3.3,9.1-9.8,13.9-21.3,15.4c-9.6,1.3-19,1.5-26.9,1.5c-3.6,0-7.2,0-10.8-0.1c-3.6,0-7.2-0.1-10.9-0.1
			c-2.5,0-4.8,0-7,0.1C115.1,388.1,113.8,388.1,112.5,388.1L112.5,388.1z M193.6,117.5c0-0.4,0-1,0.1-1.9
			c3.5-27.6,16.7-50.4,40.3-69.9c6.9-5.7,14.7-10.8,23.7-15.6c1-0.5,1.5-0.7,1.7-0.7c0.2,0.2,0.5,0.6,1.1,1.5
			c10.6,16,21.5,32.2,32,47.9c3,4.4,5.9,8.8,8.9,13.3c5,7.5,10.1,15,15.4,23l1.7,2.5c-9.3,0-18.7,0-28,0c-9.8,0-19.6,0-29.4,0
			c-18,0-41.7,0-65.7,0.1l-0.2,0C194.5,117.6,194,117.6,193.6,117.5L193.6,117.5z M346.7,117.5c1.2-1.7,2.3-3.4,3.5-5.1
			c5.3-7.7,10.3-15,15.3-22.3c4.5-6.5,9.1-13,13.6-19.6c8.8-12.6,17.8-25.6,26.6-38.5c0.8-1.2,1.3-1.7,1.5-1.9
			c0.2,0,0.6,0.2,1.4,0.6c37,20.9,57.4,48.7,62.4,85c0,0.2,0.1,0.5,0.1,0.7c0,0.3,0.1,0.6,0.1,1c-0.1,0-0.3,0-0.5,0l-0.1,0
			c-25.2-0.1-50.4-0.1-69.4-0.1c-10.2,0-20.4,0-30.7,0C362.7,117.5,354.7,117.5,346.7,117.5L346.7,117.5z M411.2,132
			c23.1,0,40.8-0.1,57.3-0.2l0.2,0c1.4,0,2.2,0.1,2.5,0.2c0,0.4,0.1,1.2-0.1,2.9c-3.3,26.2-15.2,48.1-36.3,67.1
			c-7.5,6.7-15.9,12.6-25.7,17.9c-0.1,0-0.1,0.1-0.2,0.1c-16.8-24.2-33.3-47.9-50.9-73c-3.5-5-7-10-10.5-15c1.8,0,3.5,0,5.2,0
			c9.7,0,19.5,0,29.2,0C391.7,132,401.5,132,411.2,132L411.2,132z M258.9,221.7c-0.2-0.1-0.4-0.2-0.6-0.3
			c-26-14.2-43.9-31.9-54.9-54c-5.4-10.8-8.7-22.8-9.8-35.6c28.3,0.1,56.7,0.1,80.7,0.1l26.1,0l19,0c-1.9,2.8-3.7,5.5-5.6,8.3
			c-6.7,10-13,19.4-19.4,29c-3.8,5.6-7.5,11.1-11.3,16.7c-7.8,11.5-15.9,23.4-23.7,35.2C259.2,221.4,259,221.6,258.9,221.7
			L258.9,221.7z M272.5,227.8c14.6-21.5,29.3-43.4,43.6-64.6l10.2-15.1c1.9-2.9,3.9-5.8,5.9-8.8l1.2-1.8l9.1,13
			c10.9,15.6,21.6,31,32.3,46.3c6.3,9,12.7,18.1,18.7,26.6c0.7,1,1.5,2.2,2.1,3c-1,0.4-2.3,0.9-3.5,1.3
			c-20.1,7.4-40.3,11.2-60.2,11.2c-2.7,0-5.4-0.1-8.1-0.2C308.3,237.9,291.9,234.5,272.5,227.8L272.5,227.8z"/>
	</g>
	<g>
		<path d="M215.4,494c-3,0-5.1-0.5-6.6-1.7c-3.1-2.5-2.6-7-2.1-11.4c0.2-1.9,0.4-3.8,0.3-5.5c-0.1-2.6-0.1-5.2-0.1-7.8
			c0-1.1,0-2.3,0-3.4v-1.5l0.4,0c0-2.2-0.1-4.4-0.1-6.5c-0.1-5.9-0.2-12,0.2-18c1-12.9,11.5-25.2,23.9-28.2
			c3.6-0.9,7.2-1.3,10.7-1.3c11.8,0,21.9,5.3,28.2,14.9c8,12.1,7.8,28-0.4,38.7c-6.8,8.8-16.5,13.3-28.9,13.3c-0.7,0-1.4,0-2.1,0
			c-1.9-0.1-3.3-0.6-4.2-1.6c-0.9-1-1.2-2.4-0.9-4.2c0.2-1.4,0.2-3,0-4.6c-0.4-4.3-0.6-8.4,1.8-11.4c1.7-2,4.3-3.2,8.1-3.6
			c2.1-0.2,3.7-1,4.7-2.4c1.2-1.6,1.6-4,1-6.7c-0.7-3.7-4.7-6.9-8.5-6.9c-0.2,0-0.5,0-0.7,0c-4.6,0.5-7.9,4.2-7.9,9
			c-0.2,15-0.2,29.7,0,43.7c0,2-0.1,4.1-1.4,5.4c-0.9,0.9-2.2,1.4-4,1.4c-0.4,0-0.7,0-1.2-0.1c-0.5,0-1-0.1-1.6-0.1
			c-1.4,0-2.9,0.1-4.3,0.2C218.3,493.9,216.8,494,215.4,494z"/>
		<path class="st0" d="M242.1,410.3c11.3,0,20.8,4.9,27,14.2c7.6,11.5,7.6,26.5-0.3,36.9c-7,9.1-16.6,12.7-27.7,12.7
			c-0.7,0-1.3,0-2,0c-2.9-0.1-4-1.3-3.7-4.2c0.2-1.6,0.2-3.3,0-4.9c-0.7-6.7-0.6-12.4,8.6-13.3c5.6-0.6,8.2-5,7.1-10.9
			c-0.9-4.5-5.5-8.1-10-8.1c-0.3,0-0.6,0-0.9,0c-5.2,0.6-9.2,4.7-9.3,10.5c-0.2,14.6-0.2,29.2,0,43.7c0.1,3.5-0.5,5.3-3.9,5.3
			c-0.3,0-0.7,0-1,0c-0.6,0-1.2-0.1-1.8-0.1c-2.8,0-5.9,0.4-8.6,0.4c-2.3,0-4.3-0.3-5.7-1.4c-3.6-2.9-0.9-10.3-1.2-15.8
			c-0.2-3.7,0-7.4,0-11.1c0.1,0,0.3,0,0.4,0c0-8.6-0.6-17.3,0.1-25.8c1-12.5,11.3-24.1,22.7-26.8
			C235.3,410.7,238.8,410.3,242.1,410.3 M242.1,407.3L242.1,407.3c-3.5,0-7.2,0.5-11,1.3c-13,3.1-24,16-25,29.5
			c-0.5,6.1-0.4,12.2-0.2,18.1c0,1.6,0.1,3.3,0.1,5l-0.4,0v3c0,1.1,0,2.2,0,3.4c0,2.6-0.1,5.2,0.1,7.9c0.1,1.5-0.1,3.4-0.3,5.2
			c-0.5,4.6-1.1,9.8,2.7,12.7c2.3,1.8,5.4,2.1,7.5,2.1c1.5,0,3-0.1,4.5-0.2c1.4-0.1,2.9-0.2,4.2-0.2c0.6,0,1.1,0,1.5,0.1
			c0.5,0,0.9,0.1,1.3,0.1c2.2,0,3.9-0.6,5.1-1.8c1.7-1.7,1.9-4.1,1.9-6.5c-0.1-3.9-0.1-7.9-0.1-11.9c1.2,1.3,2.9,2,5.2,2
			c0.7,0,1.4,0,2.1,0c12.9,0,23-4.7,30.1-13.9c4.3-5.6,6.6-12.5,6.6-19.9c0-7.3-2.1-14.4-6.2-20.5
			C264.9,412.8,254.4,407.3,242.1,407.3L242.1,407.3z M233.7,453.8c0-3.5,0.1-7.1,0.1-10.6c0.1-4.1,2.7-7.1,6.6-7.6
			c0.2,0,0.4,0,0.5,0c3.1,0,6.5,2.7,7.1,5.7c0.5,2.3,0.2,4.3-0.8,5.5c-0.8,1-2,1.6-3.6,1.8c-4.2,0.4-7.2,1.8-9.2,4.1
			C234.1,453.1,233.9,453.4,233.7,453.8L233.7,453.8z"/>
	</g>
	<g>
		<path d="M448.9,494.2c-15.3,0-28.6-9.5-32.4-23c-4.3-15.5,2.8-32.3,17-39.9c5.1-2.7,10.6-4.1,16.2-4.1c18.6,0,33.7,14.5,34.6,33.1
			c0.1,3.1,0.1,6.3,0.1,9.4c0,0.9,0,1.8,0,2.8h0v2.1c0,7.6,0,12.2-1.3,15c-1.6,3.4-4.9,4.1-9.8,4.1c-2.4,0-5.2-0.2-8.8-0.4l-0.3,0
			c-4.3-0.2-5.1-2.4-5-5.6c0.1-7.6,0.1-15.8,0-25.8c0-4-2.2-6.8-6.7-8.8c-0.8-0.3-1.5-0.5-2.2-0.5c-2.1,0-4.1,1.4-5.7,2.9
			c-2.3,2-3.3,4.6-2.8,7.3c0.5,3,2.8,5.5,6.1,6.8c0.7,0.3,1.8,0.4,2.8,0.5c2.5,0.2,5.9,0.5,6.5,4.1c0.9,5,0.5,10.1,0.2,15.1
			l-0.1,1.7c-0.2,3.1-3.2,3.1-4.2,3.1l-0.7,0c-0.2,0-0.4,0-0.5,0C450.8,494.2,449.8,494.2,448.9,494.2z"/>
		<path class="st0" d="M449.7,428.7c16.8,0,32.2,13,33.1,31.6c0.2,4.5,0,9,0,13.5c0,0,0,0,0,0c0,0.2,0,0.4,0,0.6
			c0,14.8,0,17.7-9.6,17.7c-2.4,0-5.3-0.2-9-0.4c-3.1-0.2-3.7-1.3-3.6-4c0.1-8.6,0.1-17.2,0-25.8c-0.1-5.1-3.1-8.2-7.5-10.2
			c-1-0.4-1.9-0.6-2.8-0.6c-2.6,0-4.8,1.6-6.7,3.2c-6,5.3-3.9,13.7,3.7,16.6c2.9,1.1,7.7-0.2,8.4,3.5c0.9,5.4,0.4,11,0,16.5
			c-0.1,1.5-1.4,1.7-2.7,1.7c-0.2,0-0.5,0-0.7,0c-0.2,0-0.4,0-0.6,0c-0.9,0.1-1.8,0.1-2.8,0.1c-14.6,0-27.3-8.9-31-21.9
			c-4.1-14.8,2.7-30.9,16.3-38.1C439.3,430,444.6,428.7,449.7,428.7 M449.7,425.7v3V425.7L449.7,425.7c-5.9,0-11.6,1.4-16.9,4.3
			c-14.8,7.9-22.3,25.4-17.8,41.6c4,14.2,17.9,24.1,33.8,24.1c1,0,2,0,3-0.1c0.1,0,0.3,0,0.4,0c0,0,0,0,0,0l0.3,0l0.4,0
			c1.5,0,4.8-0.4,5.6-3.5c1,1.6,2.8,2.5,5.5,2.6l0.3,0c3.6,0.2,6.5,0.4,8.9,0.4c4.2,0,9-0.4,11.1-5c1.5-3.2,1.5-7.6,1.5-15.6v-0.6
			v-3c0-0.4,0-0.8,0-1.2c0-3.1,0.1-6.3-0.1-9.4C484.9,440.9,469.1,425.7,449.7,425.7L449.7,425.7z M457.7,471.4
			c-1.7-2.4-4.9-2.7-6.9-2.9c-0.9-0.1-1.9-0.2-2.4-0.4c-2.8-1.1-4.8-3.2-5.2-5.6c-0.4-2.1,0.5-4.2,2.4-5.9c2-1.7,3.4-2.5,4.7-2.5
			c0.5,0,1.1,0.1,1.6,0.4c3.9,1.7,5.7,4,5.8,7.4C457.7,465.3,457.7,468.4,457.7,471.4L457.7,471.4z"/>
	</g>
	<g>
		<path d="M411.4,493.8c-6.2,0-12.3,0-18.5,0c-7.4,0-14.7,0-22.1,0c-6.1,0-8.5-3-9.4-5.6c-2.1-5.8-1.4-11.1,1.9-15.4
			c3.7-4.8,7.5-9.5,11.2-14.1c1.5-1.8,2.9-3.6,4.4-5.5c0.3-0.4,0.7-0.8,1-1.1c0.9-0.9,1.4-1.5,1.3-1.9c-0.1-0.2-0.1-0.3-0.7-0.3
			c-0.4,0-0.8,0.1-1.2,0.1c-0.5,0.1-1,0.1-1.5,0.1l-0.2,0c-7.6-0.1-11.4-0.2-13.5-2.5c-2.1-2.3-1.9-6.2-1.3-14l0-0.3
			c0.2-3.3,1.7-4.7,4.9-4.7l0.3,0c2.6,0,5.4,0.1,8.9,0.1c0,0,0,0,0,0c2,0,4,0,6,0c2,0,4,0,6,0c2,0,4.1,0,6.1,0c2,0,4.1,0,6.1,0
			c2.7,0,5.4,0,8.1,0c3.4,0,5.8,0.9,7.3,2.6c1.5,1.7,1.9,4.2,1.4,7.6c-0.6,4.3-3.1,7.6-5.5,10.7c-0.3,0.4-0.6,0.8-0.9,1.2
			c-2.3,3.1-4.8,6.2-7.1,9.3c-2.6,3.3-5.2,6.7-7.7,10.1c-0.2,0.3-0.5,0.6-0.7,0.8c-0.9,0.9-0.9,1.1-0.8,1.4c0.1,0.3,0.2,0.3,0.5,0.3
			c0.3,0,0.6,0,0.8-0.1c0.4,0,0.8-0.1,1.2-0.1c0.2,0,0.4,0,0.6,0c0.3,0,0.7,0.1,1.2,0.1c0.4,0,0.7,0,1.1,0c0.4,0,0.8,0,1.2,0
			c7.1,0,11.5,0.2,13.7,2.7c2.3,2.6,1.8,7.2,0.9,14.4C416,493.3,413.7,493.8,411.4,493.8L411.4,493.8z"/>
		<path class="st0" d="M367.7,430.1c0.1,0,0.2,0,0.3,0c3,0.1,5.9,0.1,8.9,0.1c4,0,8,0,12,0c4.1,0,8.1,0,12.2,0c2.7,0,5.4,0,8.1,0
			c5.9,0.1,8.1,2.7,7.2,8.5c-0.7,4.5-3.5,7.8-6.1,11.2c-4.9,6.5-10,12.9-14.9,19.4c-0.8,1-2.4,2.1-1.7,3.7c0.4,1,1.1,1.2,1.9,1.2
			c0.7,0,1.4-0.2,2-0.2c0.1,0,0.3,0,0.4,0c0.5,0.1,0.9,0.1,1.4,0.1c0.8,0,1.5-0.1,2.3-0.1c0,0,0.1,0,0.1,0c14.2,0,14.9,1,13,15.4
			c-0.3,2.6-1.5,2.9-3.5,2.9c0,0,0,0,0,0c-13.5,0-27.1,0-40.6,0c-3.5,0-6.8-1.1-8-4.6c-1.7-4.8-1.6-9.8,1.6-14
			c5.1-6.6,10.4-13.1,15.6-19.6c1.1-1.4,3.2-2.7,2.6-4.5c-0.4-1.1-1.2-1.3-2.1-1.3c-0.9,0-1.9,0.3-2.8,0.3c0,0,0,0-0.1,0
			c-14.6-0.3-14.5-0.2-13.4-15.2C364.5,430.7,365.4,430.1,367.7,430.1 M367.7,427.1L367.7,427.1c-4,0-6.1,2-6.4,6.1l0,0.3
			c-0.6,8.2-0.9,12.3,1.7,15.1c2.5,2.8,6.6,2.9,14.6,3l0.1,0l0.1,0c0.2,0,0.4,0,0.6,0c-0.2,0.2-0.4,0.5-0.6,0.7
			c-1.5,1.8-3,3.7-4.5,5.5c-3.7,4.6-7.6,9.3-11.2,14.1c-3.6,4.7-4.3,10.5-2.1,16.8c0.9,2.4,3.4,6.5,10.8,6.6c7.3,0,14.6,0,21.9,0
			c6.2,0,12.5,0,18.7,0c0,0,0,0,0,0c1.6,0,5.8,0,6.6-5.5c1-7.6,1.4-12.4-1.3-15.5c-2.7-3-7.3-3.2-14.7-3.2l-0.1,0
			c-0.4,0-0.8,0-1.2,0c-0.3,0-0.7,0-1,0c-0.4,0-0.7,0-1-0.1c-0.2,0-0.4,0-0.7-0.1c2.5-3.4,5.2-6.8,7.7-10.1c2.3-3,4.8-6.2,7.1-9.3
			c0.3-0.4,0.6-0.8,0.9-1.2c2.4-3.1,5.1-6.6,5.8-11.4c0.6-3.9,0-6.8-1.8-8.8c-1.8-2.1-4.5-3.1-8.4-3.1c-2.4,0-5,0-8.1,0
			c-2,0-4.1,0-6.1,0c-2,0-4.1,0-6.1,0c-2,0-4,0-6,0c-2,0-4,0-6,0c-3.5,0-6.3,0-8.9-0.1C367.9,427.1,367.8,427.1,367.7,427.1
			L367.7,427.1z"/>
	</g>
	<g>
		<path d="M332.2,494.2c-6.7,0-13.4,0-20.1-0.1c-6.4,0-9-3.2-10-5.8c-2.1-5.6-1.4-11.1,1.9-15.4c3.4-4.5,7.1-8.9,10.6-13.2
			c2-2.4,4-4.9,6-7.3c0.2-0.2,0.4-0.5,0.6-0.7c0.7-0.8,1-1.2,0.9-1.4c-0.1-0.2-0.1-0.2-0.7-0.2c-0.2,0-0.5,0-0.7,0
			c-0.3,0-0.6,0-0.8,0l-0.2,0c-0.8,0-1.7,0-2.5,0c-0.6,0-3,0-3.6,0c-9.3,0-9.9-0.7-9.9-9.9c0-10.8,0.6-11.4,11.5-11.4l14.8,0l11.4,0
			c2.4,0,4.7,0,7.1,0c4.9,0,8.1,1.4,9.8,4c1.6,2.6,1.4,6.2-0.8,10.6c-2,4.2-5,7.8-7.8,11.3c-1.4,1.7-2.8,3.5-4.1,5.2
			c-1.7,2.4-3.5,4.7-5.2,7c-1.2,1.6-2.4,3.2-3.6,4.7c-0.4,0.5-0.6,0.9-0.7,1.1c0.2,0.1,0.6,0.1,1.2,0.1l0.1,0c2.3,0,4.5,0,6.8,0
			c2.7,0,5.4,0,8.1,0.1c0,0,0,0,0,0c0.2,0,0.5,0,0.7,0c0.3,0,0.6,0,0.9,0c2.9,0,3.3,2,3.4,2.9c0.2,4.6,0.2,9.6-0.1,15.5
			c0,1.2-0.6,3.1-3.8,3.1c-0.2,0-0.4,0-0.6,0c-0.2,0-0.3,0-0.5,0l-3,0C343.5,494.2,337.8,494.2,332.2,494.2z"/>
		<path class="st0" d="M341.2,430.2c2.4,0,4.8,0,7.1,0c8.6,0,11.5,4.5,7.7,12.4c-3,6.1-7.9,10.9-11.8,16.3c-2.9,4-5.9,7.8-8.8,11.8
			c-1.8,2.4-1.3,3.6,1.7,3.6c0.1,0,0.1,0,0.2,0c2.3,0,4.5,0,6.8,0c2.7,0,5.3,0,8,0.1c0,0,0,0,0.1,0c0.5,0,1.1-0.1,1.6-0.1
			c1,0,1.8,0.2,1.9,1.4c0.2,5.1,0.2,10.3-0.1,15.4c-0.1,1.5-1.1,1.7-2.3,1.7c-0.4,0-0.8,0-1.1,0c0,0,0,0,0,0c-6.6,0-13.3,0-19.9,0
			c-6.7,0-13.4,0-20.1-0.1c-3.6,0-7.2-1.1-8.6-4.8c-1.8-4.8-1.5-9.8,1.7-14c5.4-6.9,11-13.7,16.5-20.5c0.9-1.1,2.3-2.1,1.8-3.6
			c-0.4-1-1.2-1.2-2.1-1.2c-0.5,0-1,0.1-1.5,0.1c-0.1,0-0.1,0-0.2,0c-0.8,0-1.7,0-2.5,0c-1.2,0-2.4,0-3.6,0c-8.4,0-8.4,0-8.4-8.4
			c0-9.9,0-9.9,10-9.9c4.9,0,9.9,0,14.8,0C333.6,430.2,337.4,430.2,341.2,430.2 M341.2,427.2c-1.9,0-3.8,0-5.7,0c-1.9,0-3.8,0-5.7,0
			l-14.8,0c-5.8,0-8.7,0-10.8,2.1c-2.1,2.1-2.1,5.2-2.1,10.8c0,4.9,0,7.6,1.9,9.5c1.9,1.9,4.6,1.9,9.5,1.9c0.6,0,1.2,0,1.8,0
			c0.6,0,1.2,0,1.8,0c0.8,0,1.5,0,2.2,0c-1.9,2.4-3.9,4.9-5.9,7.2c-3.5,4.3-7.1,8.7-10.6,13.2c-3.7,4.8-4.5,10.8-2.1,16.9
			c1.2,3,4.1,6.7,11.3,6.7c6,0,12.4,0.1,20.1,0.1c5.7,0,11.4,0,17.1,0l2.8,0c0,0,0,0,0,0c0.1,0,0.3,0,0.5,0c0.2,0,0.5,0,0.7,0
			c0.8,0,5.1-0.2,5.3-4.5c0.3-6,0.3-11,0.1-15.7c-0.1-2-1.4-4.3-4.9-4.3c-0.4,0-0.7,0-1,0c-0.2,0-0.4,0-0.6,0
			c-2.9,0-5.5-0.1-8.1-0.1c-1.8,0-3.6,0-5.3,0c0.9-1.2,1.8-2.4,2.7-3.5c1.7-2.3,3.5-4.7,5.2-7.1c1.3-1.7,2.6-3.4,4.1-5.2
			c2.9-3.6,5.9-7.2,8-11.6c2.4-4.9,2.6-8.9,0.7-12c-1.9-3.1-5.6-4.7-11-4.7C345.9,427.2,343.5,427.2,341.2,427.2L341.2,427.2z"/>
	</g>
	<g>
		<path d="M291.8,493.5c-14.4-0.1-15.1-0.8-15.1-15.7V459h0.3c0-2.1,0-4.2,0-6.3c0-6.3,0.1-12.9-0.1-19.3c-0.1-2.1,0.3-3.5,1.3-4.5
			c1.2-1.3,3-1.5,4.8-1.5l0.3,0c1.8,0,3.4-0.1,4.8-0.1c4.4,0,7.1,0.3,8.9,2.1c2.2,2.2,2.2,6,2.2,13.6c0,5.6-0.1,11.2-0.1,16.8
			c-0.1,8.8-0.1,17.9-0.1,26.9c0,1.9-0.2,3.9-1.5,5.2c-1.1,1.1-2.6,1.5-5,1.5L291.8,493.5z"/>
		<path class="st0" d="M288.2,428.8c9.6,0,9.6,1.6,9.5,14.1c0,14.6-0.2,29.2-0.2,43.7c0,3.7-0.8,5.3-5,5.3c0,0-0.1,0-0.1,0
			c-14.3-0.1-14.3,0.1-14.3-14.2c0-5.8,0-11.5,0-17.3c0.1,0,0.2,0,0.3,0c0-9,0.2-18.1-0.1-27.1c-0.1-3.6,1.3-4.4,4.7-4.5
			C285,428.9,286.7,428.8,288.2,428.8 M288.2,425.8L288.2,425.8c-1.4,0-3,0-4.9,0.1l-0.3,0c-2,0-4.3,0.3-5.9,2
			c-1.6,1.7-1.7,4-1.7,5.6c0.2,6.4,0.1,12.9,0.1,19.3c0,1.6,0,3.2,0,4.8h-0.3v3v17.3c0,7.9,0,11.8,2.5,14.5
			c2.6,2.7,6.4,2.7,14.1,2.8l0.6,0l0.1,0c1.8,0,4.3-0.2,6-2c1.7-1.7,1.9-4,1.9-6.3c0-9,0-18.1,0.1-26.9c0-5.5,0.1-11.2,0.1-16.8
			c0-8,0-12-2.6-14.6C295.8,426,292.2,425.8,288.2,425.8L288.2,425.8z"/>
	</g>
	<path d="M289.1,421.7c-7.3,0-12.5-5-12.6-12.1c-0.1-6.9,5.4-12.6,12.3-12.7c7.3-0.1,12.9,5.4,12.8,12.7
		C301.5,416.8,296.5,421.7,289.1,421.7z"/>
	<path class="st1" d="M234.6,24.9c-20.2,14.2-35.9,30.6-45.8,51.9c-18.2,39.2-15,77.1,8.7,112.9c18.8,28.3,45.8,46.1,77.7,56.7
		c30,10,60.8,12,91.7,5.8c43.7-8.6,79.8-29.4,104-68.1c24.2-38.7,21.4-91.1-6.5-127.3c-4.6-6-9.6-11.7-15-17
		c-5.3-5.1-11-9.7-17-13.9c0.3-0.5,0.5-1.1,0.7-1.1c25.7-0.9,51.5-0.4,76.8,4c31.2,5.4,52.2,24.7,65.3,53.1
		c12,26,19.8,53.4,27.3,80.9c10.7,39.1,16.1,79.2,21,119.4c2.4,20.2,4.9,40.4,4.7,60.8c-0.1,6.1-0.4,12.3-1.2,18.4
		c-2.4,18.8-7.3,23.6-25.9,26.6c-32.2,5.2-64.5,5.7-96.9,3.9c-7.4-0.4-14.6-2.1-21.7-3.9c-4.5-1.2-6.6-5.3-8.8-9
		c-6.5-10.9-11.3-22.7-17.3-33.9c-11.4-21-38.4-16.4-47.3-0.4c-0.2,0.4-0.4,0.7-0.6,1.1c-8.4,18.8-23.8,25.3-43.3,26.5
		c-24.7,1.5-49.3,0.6-73.8-1.7c-12.7-1.2-22.7-7.4-28.8-19.3c-2.5-4.9-5.4-9.6-9.6-13.4c-13.4-11.8-30.8-9.5-40.7,5.3
		c-5.7,8.6-9.6,18.1-14.2,27.2c-0.4,0.7-0.7,1.5-1,2.2c-4.1,11.5-12.7,16.4-24.5,18c-18.7,2.5-37.3,1-56,1.4
		c-20.7,0.4-40.9-2.4-61-6.6c-6.8-1.4-10.3-6.2-12.4-12.4c-3-9.1-3.8-18.5-4-27.9c-0.4-29.3,4.1-58.1,7.6-87.1
		c6-49.9,16.8-98.7,33.2-146.2c6-17.3,12.5-34.3,23.3-49.3c15.3-21.2,36.4-32.1,62-35.5c21.9-2.9,43.8-2.7,65.8-2.7
		C231.7,24.4,232.4,24.6,234.6,24.9z M141.4,214.2c-12.8,1.8-24.1,6.2-30,19.5c-4.5,10.3-9.3,20.5-14.1,30.7c-1.4,3-0.9,4.4,2.3,5.3
		c5.3,1.5,10.6,3.1,15.6,5.3c3.8,1.7,5.5,0.6,7-2.9c4-9.4,8.3-18.7,12.5-28.1c2-4.5,4.8-8.4,10.2-5.9c5.3,2.4,3.7,6.8,1.7,11
		c-4.3,9.3-8.4,18.7-12.6,28c-0.8,1.8-2.2,3.7,1.1,4.8c6,1.9,12,4,17.9,6.1c3.3,1.1,5.1,0.2,6.6-3.2c4.1-9.8,8.6-19.5,13-29.2
		c1.8-3.9,4.4-7,9-5.1c4.7,1.9,5,5.7,2.8,10.2c-4.5,9.4-8.7,19-12.9,28.5c-1.1,2.5-2.4,4.5,2.1,5.6c5.5,1.3,10.8,3.7,16,5.9
		c2.4,1,3.6,0.9,4.7-1.6c5.1-11.6,10.6-23.1,15.5-34.8c3.2-7.5,2.2-14.9-2.2-21.7c-7.9-12.3-19.7-15.9-33.4-14.5
		c-3.3,0.3-5.2-0.4-7.3-2.8C160.3,217.7,151.3,215.4,141.4,214.2z M290.7,288.5c0.2-7.7-0.8-11.7-3.1-16c-10.5-18.8-38-23.8-55.5-10
		c-12.6,9.9-15.5,25.3-7.1,37.5c4.9,7.1,12.3,10.3,20.3,12.7c10.7,3.3,11.2,2.8,13.6-7.9c1.4-6.2,1.7-10.1-6.3-11.4
		c-6.4-1-8.9-7.2-6.3-12.1c2.2-4.1,8.7-6.6,13.4-5.2c5.5,1.7,8.1,6,7.3,11.9c-0.4,2.6-1,5.2-1.4,7.9c-0.8,6-5.3,13.7-2.1,17.5
		c3.5,4.1,11.8,3.1,18.2,3.5c0.2,0,0.4,0.1,0.6,0.1c2.3,0.8,3.3-0.1,3.7-2.5C287.6,305.1,289.4,295.7,290.7,288.5z M476.3,305.3
		c6.3,0,11.4-1.4,16-3.3c20.2-8.4,26.3-30.7,12-46.4c-12.4-13.6-36.6-15.2-50.7-3.1c-12.8,11-14.9,27.6-4.8,39.8
		C456.2,301.2,466.3,304.6,476.3,305.3z M556.6,242.2c2-0.8,3.3-1.5,4.6-1.9c11.3-3.4,11.3-3.4,6.6-14c-1-2.3-2-4.5-3-6.7
		c-0.7-1.7-1.5-2.4-3.7-1.6c-10.5,3.9-21.2,7.2-31.7,11.1c-7.4,2.8-11.2,8.1-11.2,14.6c0.1,6.4,3.7,11.8,9.8,14.2
		c5.9,2.2,11.9,4.2,18.4,6.5c-3.2,1.2-6,2.2-8.9,3.3c-7.5,2.6-7.5,2.6-4.3,9.7c1.2,2.6,2.6,5.1,3.5,7.9c1,3.1,2.9,3.6,5.7,2.7
		c11.2-3.9,22.4-7.7,33.4-11.8c6.1-2.3,9.7-6.7,9.3-13.6c-0.4-6.6-3.7-10.9-9.5-13.8C569.9,245.8,563.3,245,556.6,242.2z
		 M409.9,317.8c2,0,4.1,0.1,6.1,0c15.6-1.1,15.6-1.1,12.3-16.2c-0.3-1.2-0.7-2.4-0.8-3.6c-0.3-3.2-1.8-3.5-4.6-2.6
		c-5.3,1.7-10.9,2.4-16.4,1.6c-4.4-0.6-7.6-3.3-7.9-8c-0.3-4.8,2-8.3,6.8-9.7c2.7-0.8,5.7-0.9,8.5-1.4c7.9-1.6,7.9-1.6,6.1-9.2
		c-0.8-3.2-1.6-6.4-2.4-9.5c-0.4-1.7-1.1-3.1-3.3-2.5c-7,1.6-14.2,1.4-20.9,4.5c-14.3,6.6-21.4,20.5-17.7,34.5
		C378.4,306,391.7,319.5,409.9,317.8z M314.3,292.4c-0.3,0-0.6,0-0.9,0c0,7,0.5,14-0.1,20.9c-0.5,6,0.7,8.7,7.3,7.9
		c5-0.6,11.6,1.9,14.9-0.5c4-2.9,1.4-9.9,1.7-15.1c0.8-16.7-2.4-17.4,19.5-20.8c1.4-0.2,2.9,0.2,4-1c0.6-0.8-0.5-17.6-1.4-18.2
		c-0.8-0.5-1.9-0.8-2.8-0.7c-12.6,1.3-25.2-0.9-37.8-1c-3.6,0-4.5,1.3-4.5,4.6C314.4,276.4,314.3,284.4,314.3,292.4z M509.4,212.3
		c1.9-16.3,1.2-16.7-14.4-10.7c-3,1.1-3.6,2.6-3.6,5.4c0.1,6.8,0.1,13.5,0.2,20.3c0,1.4-0.6,3,0.8,4c3.8,3,15-1.2,15.8-6.1
		C508.8,220.9,509,216.6,509.4,212.3z"/>
	<path class="st2" d="M326.8,127.9c-10.1,15.1-19.6,29.3-29.2,43.5c-11.7,17.3-23.5,34.4-34.9,51.8c-2,3-3.7,3.1-6.4,1.6
		c-24.1-13.2-44.1-30.7-56.6-55.7c-5.8-11.7-9.1-24.1-10.3-37.1c-0.3-3.2,0.4-4.2,3.8-4.2C237.4,128,281.5,127.9,326.8,127.9z
		 M255.6,198.4c8.4,0,15.8-4.8,17.7-11.2c1.9-6.3-0.7-12.1-7-16.1c-6.1-3.8-17.6-3-23.1,1.6c-6.9,5.8-7.2,14.7-0.5,20.8
		C246.4,196.8,250.8,198.8,255.6,198.4z M232.9,164.2c0.9-0.1,3-0.1,5-0.5c11.2-2.2,16.2-14.5,9.3-23c-6.5-8-21.6-8.5-28.6-0.9
		c-3.9,4.2-5.6,9-3.1,14.6C218.6,161.4,224.4,164.1,232.9,164.2z M283.2,162.5c9.7,0.1,18.1-6.6,18.2-14.5c0.1-8.2-8.2-15.4-18-15.5
		c-10.1-0.1-18,6.7-18,15.3C265.5,156.2,273,162.4,283.2,162.5z"/>
	<path class="st3" d="M326.2,121.5c-3,0-4.6,0-6.2,0c-41.5,0-82.9-0.1-124.4,0.1c-5.3,0-6.5-1.3-5.8-6.5c3.9-30,18.8-53.6,41.7-72.5
		c7.5-6.2,15.7-11.5,24.4-16.1c4.2-2.2,5.8-1.3,8.1,2.1c13.5,20.4,27.2,40.8,40.8,61.2C311.7,100,318.5,110.1,326.2,121.5z
		 M280.8,86.2c-2.2,0.4-4.8,0.4-7,1.3c-5.2,2.2-9.7,5.4-10.6,11.6c-1,6.4,1.9,10.9,7.1,14.4c4.8,3.2,10,3.2,15.3,2.3
		c6.3-1.1,12-6.4,13.2-12.1c1.1-5.5-1.9-10.9-7.8-14.7C288,86.9,284.5,86.9,280.8,86.2z M254.1,78.9c9.3,0.1,16.5-4.5,18-11.6
		c1.6-7.5-2.6-13.9-11.2-17.3c-3.2-1.3-6.5-1-9.7-0.7c-6.6,0.7-13.4,6.6-14.5,12.4c-1.2,6.4,1.8,11,6.9,14.6
		C246.7,78.5,250.4,78.8,254.1,78.9z M230.6,114.8c2.2-0.5,5.1-0.8,7.7-1.8c10.8-4.2,13-16.6,4.3-24.1c-6.1-5.3-19.1-5.4-25.1-0.2
		c-7.6,6.5-7.3,15.9,0.5,22C221.5,113.4,225.7,114.3,230.6,114.8z"/>
	<path class="st3" d="M339.1,121.5c8.1-11.9,15.6-22.8,23.1-33.6c13.4-19.3,26.9-38.6,40.2-58c2.3-3.4,4-4.8,8.2-2.5
		c34.7,19.7,58.7,47.1,64.4,88c0.4,3.2,1.3,6.3-4.3,6.3C427.3,121.4,383.9,121.5,339.1,121.5z M412.5,78.2
		c9.9,0.1,18.4-6.8,18.3-15.1c0-8-8.2-14.8-17.9-15c-10.1-0.2-18.1,6.6-18.1,15.1C394.9,71.7,402.4,78.1,412.5,78.2z M388.2,115.5
		c9.4,0.1,18.2-7.3,18.2-15.4c0-8.3-7.6-14.6-17.8-14.7c-10.3-0.1-17.9,5.9-18.1,14.3C370.3,107.9,378.6,115.4,388.2,115.5z
		 M439.7,83.5c-10.5-0.1-18.5,6.3-18.5,14.8c0,8.1,8.1,14.9,17.9,14.9c10,0.1,17.9-6.3,18-14.6C457.4,90.1,449.9,83.6,439.7,83.5z"
		/>
	<path class="st4" d="M333.4,130.4c15.3,21.9,30,43,44.8,64.1c6.2,8.9,12.5,17.7,18.7,26.6c5.1,7.3,5.2,7.3-3.2,10.4
		c-22.5,8.3-45.7,12.4-69.8,11.2c-18.4-0.9-35.9-5.4-53.2-11.4c-3.7-1.3-3.3-3-1.4-5.8c18-26.6,35.9-53.2,53.8-79.8
		C326.3,140.9,329.6,136,333.4,130.4z M309.6,225.3c9.9,0.1,18.1-6.9,18.1-15.2c0-8.3-7.6-14.5-17.8-14.6
		c-10.3-0.1-17.9,5.9-18.1,14.2C291.6,218.1,299.7,225.2,309.6,225.3z M333,187.4c8.6,0,15-3.8,17.3-9.9c2-5.6,0.8-10.6-3.4-14.6
		c-4.9-4.6-11.1-6.4-17.6-4.9c-6.1,1.4-11.5,4.3-13.5,11.1c-1.5,5,0,9.4,3.4,13C323,186.1,327.9,187.9,333,187.4z M357,225.3
		c9.7,0,17.7-6.9,17.8-15.1c0.1-8.5-7.4-14.6-17.8-14.7c-10.2,0-18.1,6.2-18.2,14.4C338.6,218.2,347.1,225.3,357,225.3z"/>
	<path class="st2" d="M339.9,127.9c5.2,0,9.1,0,12.9,0c38.6,0,77.1,0.2,115.7-0.2c6.5-0.1,7.3,2.1,6.6,7.6
		c-3.5,28.1-16.8,50.9-37.6,69.5c-8.1,7.2-17,13.3-26.5,18.4c-2.5,1.4-3.5,1.5-5.2-0.9C384.1,191.3,362.4,160.2,339.9,127.9z
		 M433.7,181.5c-0.1-8.1-8.3-14.9-17.9-14.9c-9.9,0-18.2,7.2-18,15.5c0.2,8.3,8.7,15.1,18.6,14.7
		C426.3,196.5,433.9,189.8,433.7,181.5z M439.5,133c-9.9-0.2-18.3,6.8-18.2,15.2c0.1,8.1,8.3,15,17.9,15.2
		c9.5,0.1,17.8-6.6,18.1-14.8C457.6,140,449.8,133.1,439.5,133z M388.8,131.4c-9.1,0-16.3,4.7-17.9,11.5c-1.5,6.2,1.6,12.9,8.2,16.2
		c4.5,2.3,9.3,2.7,14.3,1.5c6.9-1.6,12.4-7,13-12.9c0.7-6.3-3.3-12.2-10.1-15.2C393.7,131.3,391,131.6,388.8,131.4z"/>
	<path class="st5" d="M141.4,214.2c10,1.1,19,3.5,25.6,11.1c2.1,2.4,4,3.2,7.3,2.8c13.7-1.4,25.6,2.2,33.4,14.5
		c4.4,6.9,5.3,14.3,2.2,21.7c-4.9,11.7-10.4,23.1-15.5,34.8c-1.1,2.5-2.3,2.6-4.7,1.6c-5.2-2.3-10.5-4.6-16-5.9
		c-4.5-1.1-3.2-3.1-2.1-5.6c4.3-9.5,8.4-19.1,12.9-28.5c2.2-4.5,1.9-8.2-2.8-10.2c-4.6-1.9-7.2,1.2-9,5.1c-4.4,9.7-8.9,19.4-13,29.2
		c-1.4,3.4-3.2,4.4-6.6,3.2c-6-2.1-11.9-4.2-17.9-6.1c-3.3-1.1-1.9-3-1.1-4.8c4.2-9.3,8.3-18.7,12.6-28c2-4.2,3.6-8.6-1.7-11
		c-5.4-2.5-8.2,1.4-10.2,5.9c-4.1,9.4-8.4,18.6-12.5,28.1c-1.5,3.5-3.1,4.6-7,2.9c-5-2.2-10.3-3.8-15.6-5.3
		c-3.2-0.9-3.7-2.4-2.3-5.3c4.8-10.2,9.6-20.4,14.1-30.7C117.3,220.4,128.6,216,141.4,214.2z"/>
	<path class="st5" d="M290.7,288.5c-1.3,7.2-3.1,16.6-4.7,26.1c-0.4,2.4-1.4,3.2-3.7,2.5c-0.2-0.1-0.4-0.1-0.6-0.1
		c-6.4-0.4-14.7,0.6-18.2-3.5c-3.3-3.9,1.3-11.5,2.1-17.5c0.3-2.6,1-5.2,1.4-7.9c0.9-5.9-1.8-10.2-7.3-11.9
		c-4.7-1.4-11.1,1.1-13.4,5.2c-2.7,4.9-0.2,11,6.3,12.1c8,1.3,7.7,5.2,6.3,11.4c-2.4,10.7-2.9,11.2-13.6,7.9
		c-7.9-2.4-15.4-5.6-20.3-12.7c-8.4-12.2-5.5-27.6,7.1-37.5c17.5-13.8,45-8.8,55.5,10C290,276.8,290.9,280.8,290.7,288.5z"/>
	<path class="st5" d="M476.3,305.3c-10.1-0.8-20.1-4.1-27.5-13.1c-10.1-12.2-8-28.8,4.8-39.8c14.1-12,38.2-10.5,50.7,3.1
		c14.3,15.6,8.2,38-12,46.4C487.7,304,482.7,305.4,476.3,305.3z M488.3,274.7c-0.1-5.1-5.6-9.9-11.3-9.8c-5.5,0.1-10.5,4.8-10.6,9.8
		c0,5.2,5.4,9.9,11.2,9.7C483.2,284.3,488.4,279.5,488.3,274.7z"/>
	<path class="st5" d="M556.6,242.2c6.7,2.8,13.2,3.6,19.1,6.6c5.8,3,9.2,7.2,9.5,13.8c0.4,6.9-3.2,11.3-9.3,13.6
		c-11.1,4.1-22.3,7.9-33.4,11.8c-2.8,1-4.6,0.5-5.7-2.7c-0.9-2.7-2.3-5.2-3.5-7.9c-3.2-7.1-3.2-7.1,4.3-9.7c2.9-1,5.7-2.1,8.9-3.3
		c-6.5-2.3-12.5-4.3-18.4-6.5c-6.1-2.3-9.8-7.8-9.8-14.2c-0.1-6.5,3.7-11.8,11.2-14.6c10.5-3.9,21.2-7.3,31.7-11.1
		c2.2-0.8,2.9-0.1,3.7,1.6c1,2.3,2,4.5,3,6.7c4.6,10.6,4.6,10.6-6.6,14C559.9,240.7,558.6,241.4,556.6,242.2z"/>
	<path class="st6" d="M409.9,317.8c-18.3,1.7-31.6-11.8-34.3-22.2c-3.7-14,3.4-27.9,17.7-34.5c6.7-3.1,14-2.9,20.9-4.5
		c2.3-0.5,2.9,0.8,3.3,2.5c0.8,3.2,1.7,6.4,2.4,9.5c1.8,7.6,1.8,7.6-6.1,9.2c-2.8,0.6-5.7,0.6-8.5,1.4c-4.8,1.3-7.1,4.8-6.8,9.7
		c0.3,4.7,3.5,7.4,7.9,8c5.5,0.8,11.1,0.1,16.4-1.6c2.8-0.9,4.3-0.6,4.6,2.6c0.1,1.2,0.6,2.4,0.8,3.6c3.4,15,3.4,15.1-12.3,16.2
		C414,317.9,412,317.8,409.9,317.8z"/>
	<path class="st6" d="M314.3,292.4c0-8,0.1-16-0.1-24c-0.1-3.4,0.8-4.7,4.5-4.6c12.6,0.1,25.1,2.3,37.8,1c0.9-0.1,2.1,0.2,2.8,0.7
		c0.9,0.6,2,17.5,1.4,18.2c-1.1,1.3-2.6,0.8-4,1c-21.9,3.4-18.7,4.1-19.5,20.8c-0.3,5.2,2.3,12.2-1.7,15.1
		c-3.3,2.4-9.9-0.1-14.9,0.5c-6.6,0.8-7.9-1.9-7.3-7.9c0.6-6.9,0.1-13.9,0.1-20.9C313.7,292.4,314,292.4,314.3,292.4z"/>
	<path class="st6" d="M509.4,212.3c-0.4,4.3-0.6,8.6-1.3,12.8c-0.8,4.9-12,9.1-15.8,6.1c-1.3-1.1-0.7-2.7-0.8-4
		c-0.1-6.8,0-13.5-0.2-20.3c-0.1-2.7,0.6-4.2,3.6-5.4C510.6,195.7,511.2,196.1,509.4,212.3z"/>
	<path class="st7" d="M255.6,198.4c-4.8,0.4-9.2-1.5-13-5c-6.7-6.1-6.4-15,0.5-20.8c5.6-4.6,17.1-5.5,23.1-1.6c6.3,4,8.8,9.9,7,16.1
		C271.4,193.5,264,198.3,255.6,198.4z"/>
	<path class="st7" d="M232.9,164.2c-8.5-0.1-14.3-2.8-17.4-9.7c-2.5-5.6-0.8-10.4,3.1-14.6c7-7.6,22.1-7.1,28.6,0.9
		c6.9,8.5,1.9,20.8-9.3,23C235.8,164.1,233.7,164.1,232.9,164.2z"/>
	<path class="st7" d="M283.2,162.5c-10.2-0.1-17.7-6.3-17.8-14.7c-0.1-8.6,7.9-15.4,18-15.3c9.8,0.1,18.1,7.3,18,15.5
		C301.3,155.9,292.9,162.6,283.2,162.5z"/>
	<path class="st7" d="M280.8,86.2c3.7,0.7,7.1,0.7,10.2,2.7c5.8,3.8,8.8,9.2,7.8,14.7c-1.1,5.7-6.8,11.1-13.2,12.1
		c-5.3,0.9-10.5,0.9-15.3-2.3c-5.2-3.5-8-8-7.1-14.4c0.9-6.2,5.4-9.4,10.6-11.6C276.1,86.6,278.7,86.6,280.8,86.2z"/>
	<path class="st7" d="M254.1,78.9c-3.7,0-7.4-0.3-10.5-2.6c-5.1-3.5-8.1-8.2-6.9-14.6c1.1-5.8,7.9-11.7,14.5-12.4
		c3.2-0.3,6.5-0.6,9.7,0.7c8.6,3.4,12.8,9.8,11.2,17.3C270.6,74.3,263.4,79,254.1,78.9z"/>
	<path class="st7" d="M230.6,114.8c-5-0.5-9.1-1.4-12.6-4.1c-7.8-6.1-8-15.5-0.5-22c6.1-5.2,19-5.1,25.1,0.2
		c8.6,7.5,6.5,20-4.3,24.1C235.7,114,232.8,114.3,230.6,114.8z"/>
	<path class="st7" d="M412.5,78.2c-10-0.1-17.6-6.5-17.6-14.9c0-8.6,8-15.3,18.1-15.1c9.7,0.2,17.8,7,17.9,15
		C430.8,71.4,422.4,78.3,412.5,78.2z"/>
	<path class="st7" d="M388.2,115.5c-9.6-0.2-17.9-7.6-17.7-15.9c0.3-8.4,7.8-14.4,18.1-14.3c10.2,0.1,17.8,6.4,17.8,14.7
		C406.4,108.2,397.6,115.7,388.2,115.5z"/>
	<path class="st7" d="M439.7,83.5c10.2,0.1,17.7,6.5,17.5,15c-0.2,8.3-8.1,14.7-18,14.6c-9.8-0.1-17.9-6.8-17.9-14.9
		C421.2,89.8,429.2,83.4,439.7,83.5z"/>
	<path class="st7" d="M309.6,225.3c-9.9-0.1-18-7.2-17.8-15.6c0.2-8.3,7.8-14.3,18.1-14.2c10.2,0.1,17.8,6.2,17.8,14.6
		C327.7,218.4,319.4,225.4,309.6,225.3z"/>
	<path class="st7" d="M333,187.4c-5.1,0.5-10-1.3-13.8-5.3c-3.4-3.6-4.9-8-3.4-13c2-6.7,7.4-9.7,13.5-11.1
		c6.5-1.5,12.7,0.4,17.6,4.9c4.3,3.9,5.5,9,3.4,14.6C348,183.6,341.6,187.3,333,187.4z"/>
	<path class="st7" d="M357,225.3c-9.9,0-18.4-7.1-18.2-15.4c0.1-8.2,8-14.5,18.2-14.4c10.4,0,17.8,6.2,17.8,14.7
		C374.7,218.4,366.6,225.3,357,225.3z"/>
	<path class="st7" d="M433.7,181.5c0.1,8.3-7.4,15-17.3,15.3c-9.9,0.3-18.3-6.4-18.6-14.7c-0.2-8.3,8.1-15.5,18-15.5
		C425.4,166.6,433.6,173.4,433.7,181.5z"/>
	<path class="st7" d="M439.5,133c10.3,0.2,18.1,7,17.8,15.5c-0.3,8.1-8.6,14.9-18.1,14.8c-9.5-0.1-17.8-7.1-17.9-15.2
		C421.2,139.8,429.6,132.8,439.5,133z"/>
	<path class="st7" d="M388.8,131.4c2.2,0.2,4.9-0.1,7.4,1c6.9,3,10.8,8.9,10.1,15.2c-0.6,6-6.1,11.3-13,12.9
		c-5,1.2-9.8,0.8-14.3-1.5c-6.6-3.3-9.7-9.9-8.2-16.2C372.5,136.1,379.7,131.4,388.8,131.4z"/>
	<path class="st8" d="M488.3,274.7c0.1,4.8-5.1,9.6-10.6,9.8c-5.8,0.2-11.3-4.6-11.2-9.7c0-5,5.1-9.7,10.6-9.8
		C482.7,264.8,488.2,269.6,488.3,274.7z"/>
</g>
</svg>
