<?xml version="1.0" encoding="utf-8"?>
<!-- Generator: Adobe Illustrator 17.0.2, SVG Export Plug-In . SVG Version: 6.00 Build 0)  -->
<!DOCTYPE svg PUBLIC "-//W3C//DTD SVG 1.1//EN" "http://www.w3.org/Graphics/SVG/1.1/DTD/svg11.dtd">
<svg version="1.1" id="Layer_1" xmlns="http://www.w3.org/2000/svg" xmlns:xlink="http://www.w3.org/1999/xlink" x="0px" y="0px"
	 width="211.455px" height="64.359px" viewBox="0 0 211.455 64.359" enable-background="new 0 0 211.455 64.359"
	 xml:space="preserve">
<g>
</g>
<rect x="0" y="0" width="211.455" height="21.779"/>
<text transform="matrix(1 0 0 1 65.4703 12.676)" fill="#FFFFFF" font-family="'TitanOne'" font-size="8.9101">8&quot;</text>
<text transform="matrix(1 0 0 1 59.2521 18.219)" fill="#FFFFFF" font-family="'TitanOne'" font-size="4.4747">Personal </text>
<text transform="matrix(1 0 0 1 94.1909 12.6764)" fill="#FFFFFF" font-family="'TitanOne'" font-size="8.9101">10&quot;</text>
<text transform="matrix(1 0 0 1 91.332 18.2193)" fill="#FFFFFF" font-family="'TitanOne'" font-size="4.4747">Pequeña</text>
<text transform="matrix(1 0 0 1 127.3206 12.6763)" fill="#FFFFFF" font-family="'TitanOne'" font-size="8.9101">12&quot;</text>
<text transform="matrix(1 0 0 1 124.2532 18.2192)" fill="#FFFFFF" font-family="'TitanOne'" font-size="4.4747">Mediana</text>
<text transform="matrix(1 0 0 1 157.7199 12.6761)" fill="#FFFFFF" font-family="'TitanOne'" font-size="8.9101">14&quot;</text>
<text transform="matrix(1 0 0 1 156.0885 18.2191)" fill="#FFFFFF" font-family="'TitanOne'" font-size="4.4747">Grande</text>
<text transform="matrix(1 0 0 1 189.4186 12.6761)" fill="#FFFFFF" font-family="'TitanOne'" font-size="8.9101">16&quot;</text>
<text transform="matrix(1 0 0 1 185.133 18.2191)" fill="#FFFFFF" font-family="'TitanOne'" font-size="4.4747">X-Grande</text>
<text transform="matrix(1 0 0 1 58.7755 35.7717)"><tspan x="0" y="0" font-family="'Myriad-Roman'" font-size="7.9716">$5.49 </tspan><tspan x="19.697" y="0" font-family="'Myriad-Roman'" font-size="7.9716" letter-spacing="7"> </tspan><tspan x="29.183" y="0" font-family="'Myriad-Roman'" font-size="7.9716">$6.99</tspan><tspan x="47.19" y="0" font-family="'Myriad-Roman'" font-size="7.9716" letter-spacing="13"> </tspan><tspan x="62.001" y="0" font-family="'Myriad-Roman'" font-size="7.9716">$12.79</tspan><tspan x="84.098" y="0" font-family="'Myriad-Roman'" font-size="7.9716" letter-spacing="6"> </tspan><tspan x="92.166" y="0" font-family="'Myriad-Roman'" font-size="7.9716">$15.79</tspan><tspan x="114.262" y="0" font-family="'Myriad-Roman'" font-size="7.9716" letter-spacing="9"> </tspan><tspan x="125.869" y="0" font-family="'Myriad-Roman'" font-size="7.9716">$18.79</tspan></text>
<text transform="matrix(1 0 0 1 62.7755 54.053)" font-family="'Myriad-Roman'" font-size="7.9716">75</text>
<text transform="matrix(1 0 0 1 70.9542 54.053)" font-family="'MyriadPro-Regular'" font-size="7.9716">¢</text>
<text transform="matrix(1 0 0 1 75.0441 54.053)"><tspan x="0" y="0" font-family="'Myriad-Roman'" font-size="7.9716" letter-spacing="13"> </tspan><tspan x="15.226" y="0" font-family="'Myriad-Roman'" font-size="7.9716">$1.50</tspan><tspan x="33.233" y="0" font-family="'Myriad-Roman'" font-size="7.9716" letter-spacing="13"> </tspan><tspan x="48.044" y="0" font-family="'Myriad-Roman'" font-size="7.9716">$1.75</tspan><tspan x="66.051" y="0" font-family="'Myriad-Roman'" font-size="7.9716" letter-spacing="10"> </tspan><tspan x="78.2" y="0" font-family="'Myriad-Roman'" font-size="7.9716">$2.00</tspan><tspan x="96.207" y="0" font-family="'Myriad-Roman'" font-size="7.9716" letter-spacing="14"> </tspan><tspan x="111.903" y="0" font-family="'Myriad-Roman'" font-size="7.9716">$2.25</tspan></text>
<text transform="matrix(1 0 0 1 8.2249 50.6849)"><tspan x="0" y="0" font-family="'Myriad-Bold'" font-size="7.5281">Ing</tspan><tspan x="10.186" y="0" font-family="'Myriad-Bold'" font-size="7.5281">r</tspan><tspan x="12.602" y="0" font-family="'Myriad-Bold'" font-size="7.5281">edie</tspan><tspan x="26.152" y="0" font-family="'Myriad-Bold'" font-size="7.5281">n</tspan><tspan x="30.292" y="0" font-family="'Myriad-Bold'" font-size="7.5281">t</tspan><tspan x="32.754" y="0" font-family="'Myriad-Bold'" font-size="7.5281">es</tspan></text>
<text transform="matrix(1 0 0 1 9.9187 59.6131)"><tspan x="0" y="0" font-family="'Myriad-Bold'" font-size="7.5281">A</tspan><tspan x="4.509" y="0" font-family="'Myriad-Bold'" font-size="7.5281">dicionales</tspan></text>
<text transform="matrix(1 0 0 1 14.4474 15.3611)" fill="#FFFFFF" font-family="'TitanOne'" font-size="12.2676">Pizza </text>
<text transform="matrix(1 0 0 1 17.6494 34.5395)"><tspan x="0" y="0" font-family="'Myriad-Bold'" font-size="7.5281">Q</tspan><tspan x="5.202" y="0" font-family="'Myriad-Bold'" font-size="7.5281">ueso </tspan></text>
<line fill="none" stroke="#000000" stroke-width="0.887" stroke-linecap="round" stroke-linejoin="round" x1="54.402" y1="26.383" x2="54.402" y2="26.383"/>
<line fill="none" stroke="#000000" stroke-width="0.887" stroke-linecap="round" stroke-linejoin="round" stroke-dasharray="0,2.682" x1="54.402" y1="29.065" x2="54.402" y2="59.903"/>
<line fill="none" stroke="#000000" stroke-width="0.887" stroke-linecap="round" stroke-linejoin="round" x1="54.402" y1="61.243" x2="54.402" y2="61.243"/>
<line fill="none" stroke="#000000" stroke-width="0.887" stroke-linecap="round" stroke-linejoin="round" x1="83.61" y1="26.383" x2="83.61" y2="26.383"/>
<line fill="none" stroke="#000000" stroke-width="0.887" stroke-linecap="round" stroke-linejoin="round" stroke-dasharray="0,2.682" x1="83.61" y1="29.065" x2="83.61" y2="59.903"/>
<line fill="none" stroke="#000000" stroke-width="0.887" stroke-linecap="round" stroke-linejoin="round" x1="83.61" y1="61.243" x2="83.61" y2="61.243"/>
<line fill="none" stroke="#000000" stroke-width="0.887" stroke-linecap="round" stroke-linejoin="round" x1="115.33" y1="26.383" x2="115.33" y2="26.383"/>
<line fill="none" stroke="#000000" stroke-width="0.887" stroke-linecap="round" stroke-linejoin="round" stroke-dasharray="0,2.682" x1="115.33" y1="29.065" x2="115.33" y2="59.903"/>
<line fill="none" stroke="#000000" stroke-width="0.887" stroke-linecap="round" stroke-linejoin="round" x1="115.33" y1="61.243" x2="115.33" y2="61.243"/>
<line fill="none" stroke="#000000" stroke-width="0.887" stroke-linecap="round" stroke-linejoin="round" x1="179.085" y1="26.383" x2="179.085" y2="26.383"/>
<line fill="none" stroke="#000000" stroke-width="0.887" stroke-linecap="round" stroke-linejoin="round" stroke-dasharray="0,2.682" x1="179.085" y1="29.065" x2="179.085" y2="59.903"/>
<line fill="none" stroke="#000000" stroke-width="0.887" stroke-linecap="round" stroke-linejoin="round" x1="179.085" y1="61.243" x2="179.085" y2="61.243"/>
<line fill="none" stroke="#000000" stroke-width="0.887" stroke-linecap="round" stroke-linejoin="round" x1="147.364" y1="26.383" x2="147.364" y2="26.383"/>
<line fill="none" stroke="#000000" stroke-width="0.887" stroke-linecap="round" stroke-linejoin="round" stroke-dasharray="0,2.682" x1="147.364" y1="29.065" x2="147.364" y2="59.903"/>
<line fill="none" stroke="#000000" stroke-width="0.887" stroke-linecap="round" stroke-linejoin="round" x1="147.364" y1="61.243" x2="147.364" y2="61.243"/>
<line fill="none" stroke="#000000" stroke-width="0.887" stroke-miterlimit="10" x1="210.199" y1="41.25" x2="0" y2="41.25"/>
</svg>
