<?xml version="1.0" encoding="utf-8"?>
<!-- Generator: Adobe Illustrator 17.0.0, SVG Export Plug-In . SVG Version: 6.00 Build 0)  -->
<!DOCTYPE svg PUBLIC "-//W3C//DTD SVG 1.1//EN" "http://www.w3.org/Graphics/SVG/1.1/DTD/svg11.dtd">
<svg version="1.1" id="Capa_1" xmlns="http://www.w3.org/2000/svg" xmlns:xlink="http://www.w3.org/1999/xlink" x="0px" y="0px"
	 width="30.202px" height="26px" viewBox="0 0 30.202 26" enable-background="new 0 0 30.202 26" xml:space="preserve">
<g>
	<g>
		<path d="M21.869,17.2c-0.849-0.839-1.91-0.839-2.754,0c-0.644,0.638-1.288,1.277-1.921,1.926c-0.173,0.179-0.319,0.216-0.53,0.097
			c-0.417-0.227-0.86-0.411-1.261-0.66c-1.867-1.174-3.43-2.684-4.815-4.382c-0.687-0.844-1.299-1.748-1.726-2.765
			c-0.087-0.206-0.07-0.341,0.097-0.509c0.644-0.622,1.271-1.261,1.904-1.899c0.882-0.887,0.882-1.926-0.005-2.819
			c-0.503-0.509-1.006-1.006-1.51-1.515C8.829,4.155,8.315,3.63,7.79,3.116C6.941,2.288,5.88,2.288,5.036,3.121
			C4.387,3.759,3.765,4.414,3.104,5.042C2.493,5.621,2.184,6.33,2.119,7.157c-0.103,1.347,0.227,2.619,0.693,3.858
			c0.952,2.565,2.402,4.842,4.161,6.931c2.375,2.824,5.21,5.059,8.527,6.671c1.493,0.725,3.041,1.282,4.723,1.374
			c1.158,0.065,2.164-0.227,2.97-1.131c0.552-0.617,1.174-1.179,1.758-1.769c0.866-0.876,0.871-1.937,0.011-2.803
			C23.936,19.256,22.902,18.228,21.869,17.2z"/>
		<path d="M20.836,12.888l1.996-0.341c-0.314-1.834-1.18-3.495-2.494-4.815c-1.391-1.39-3.149-2.267-5.086-2.537l-0.281,2.007
			c1.499,0.211,2.862,0.887,3.939,1.964C19.927,10.183,20.592,11.471,20.836,12.888z"/>
		<path d="M23.957,4.21c-2.305-2.305-5.221-3.76-8.44-4.209l-0.281,2.007c2.781,0.39,5.302,1.65,7.293,3.636
			c1.888,1.888,3.127,4.274,3.576,6.898l1.996-0.341C27.577,9.161,26.143,6.401,23.957,4.21z"/>
	</g>
</g>
</svg>
